<svg width="32" height="32" viewBox="0 0 32 32" fill="none" xmlns="http://www.w3.org/2000/svg">
<path fill-rule="evenodd" clip-rule="evenodd" d="M3.26627 24.6656C1.2054 21.7471 0.756498 18.5887 2.61332 15.0704C3.8376 12.9115 5.36796 11.0924 7.24519 9.65315C8.6123 8.59368 10.1631 7.81407 11.8158 7.23436C17.2639 5.31532 19.5288 3.33631 17.7536 1.27734C19.8145 1.41727 21.406 2.01697 21.2428 4.19588C20.345 7.77409 17.1823 10.033 12.7749 11.6122C11.5098 12.0719 10.2855 12.6317 9.14282 13.3713C4.77622 16.1499 2.69494 19.868 3.26627 24.6656ZM13.5506 3.69548C7.28632 5.79443 3.40943 9.57254 0.899658 14.2902C2.12394 7.51357 6.20487 3.41562 12.7344 1.59653L12.8156 1.57635C12.9465 1.5436 13.068 1.51319 13.2037 1.49658C15.6114 1.07679 16.346 1.77644 15.0197 2.89588C14.5912 3.2557 14.0811 3.51557 13.5506 3.69548ZM8.47104 29.1234C7.47121 22.9665 11.4501 20.8876 17.7144 18.1289C19.6528 17.2894 21.4484 16.1499 22.9992 14.7106C27.529 10.6127 27.5086 6.67466 22.938 2.87656C25.2029 6.41479 21.2444 10.7126 11.2461 15.2504C5.30832 18.3288 3.65554 25.5452 8.47104 29.1234ZM23.5271 22.9658C20.6147 25.1405 18.2655 26.2652 16.5896 27.0676C14.1677 28.2272 13.1521 28.7135 13.8757 30.722C6.55043 29.1228 11.2843 24.2052 18.3443 20.627C20.2216 19.6675 22.0376 18.708 23.7108 17.4486C28.8323 13.6305 28.5263 8.75294 27.2204 6.51406C32.3623 11.5316 29.7505 18.1083 23.5271 22.9658ZM31.0984 17.5883C28.5886 22.3059 24.7117 26.084 18.4475 28.183C17.917 28.3629 17.4069 28.6428 16.9784 28.9826C15.6521 30.102 16.3866 30.8017 18.7944 30.3819C18.93 30.3653 19.0516 30.3349 19.1825 30.3021C19.2091 30.2955 19.2361 30.2887 19.2637 30.2819C25.7932 28.4628 29.8741 24.3449 31.0984 17.5883Z" fill="#777777"/>
</svg>
