<svg width="64" height="64" viewBox="0 0 64 64" fill="none" xmlns="http://www.w3.org/2000/svg">
<g clip-path="url(#clip0_130_6144)">
<path d="M35.0786 58.3306C34.8101 58.3306 34.6312 58.241 34.4521 58.0622C30.8725 54.5722 26.0402 52.6034 21.0293 52.6034C16.0183 52.6034 11.2751 54.5722 7.60647 58.0622C7.24843 58.4202 6.71152 58.4202 6.35378 58.0622C2.23736 54.1249 0.00012207 48.7559 0.00012207 43.0286C0.00012207 37.3013 2.23736 31.9322 6.35348 27.9951C6.71152 27.6371 7.24843 27.6371 7.60617 27.9951C11.1857 31.485 16.018 33.4538 21.029 33.4538C26.04 33.4538 30.7831 31.485 34.4518 27.9951C34.8098 27.6371 35.3467 27.6371 35.7044 27.9951C39.8209 32.0219 42.0578 37.3013 42.0578 43.0286C42.0578 48.7559 39.8206 54.1251 35.7044 58.0622C35.5259 58.241 35.2574 58.3306 35.0785 58.3306H35.0786ZM6.97967 29.8743C3.57933 33.4538 1.78942 38.1067 1.78942 43.0286C1.78942 47.9506 3.66861 52.6033 6.97967 56.183C10.8276 52.693 15.749 50.8138 21.0291 50.8138C26.2194 50.8138 31.1407 52.693 35.0786 56.183C38.4789 52.6034 40.2688 47.9506 40.2688 43.0286C40.2688 38.1067 38.3896 33.454 35.0786 29.8743C31.2306 33.3642 26.3093 35.2434 21.0291 35.2434C15.8389 35.2434 10.9175 33.2746 6.97967 29.8743Z" fill="#777777"/>
<path d="M21.0291 35.2439C15.5704 35.2439 10.2909 33.0963 6.35378 29.2483C6.17462 29.0694 6.08533 28.8906 6.08533 28.6221C6.08533 28.3537 6.17491 28.1748 6.35378 27.9956C10.291 24.1476 15.5703 22 21.0291 22C26.488 22 31.7674 24.1476 35.7045 27.9956C35.8833 28.1745 35.9729 28.3537 35.9729 28.6221C35.9729 28.8906 35.8833 29.0694 35.7045 29.2486C31.7672 33.0963 26.488 35.2439 21.0291 35.2439V35.2439ZM8.32195 28.6221C11.8119 31.754 16.2859 33.4543 21.0291 33.4543C25.7717 33.4543 30.2464 31.754 33.7363 28.6221C30.2464 25.4899 25.7716 23.7899 21.0291 23.7899C16.2867 23.7899 11.8119 25.4899 8.32195 28.6221Z" fill="#777777"/>
<path d="M21.0291 64.0587C15.5704 64.0587 10.2909 61.911 6.35378 58.0631C6.17491 57.8842 6.08533 57.705 6.08533 57.4366C6.08533 57.1681 6.17491 56.9892 6.35378 56.8101C10.291 52.9621 15.4813 50.8145 21.0291 50.8145C26.4878 50.8145 31.7674 52.9621 35.7045 56.8101C35.8833 56.9889 35.9729 57.1681 35.9729 57.4366C35.9729 57.705 35.8833 57.8839 35.7045 58.0631C31.7672 61.911 26.488 64.0587 21.0291 64.0587ZM8.32195 57.4366C11.8119 60.5685 16.2859 62.2688 21.0291 62.2688C25.7717 62.2688 30.2464 60.5685 33.7363 57.4366C30.2464 54.3047 25.7723 52.6044 21.0291 52.6044C16.2865 52.6044 11.8119 54.3047 8.32195 57.4366Z" fill="#777777"/>
<path d="M21.0292 64.0586C15.302 64.0586 10.8279 54.8414 10.8279 43.0293C10.8279 31.2172 15.302 22 21.0292 22C26.7564 22 31.2305 31.2172 31.2305 43.0293C31.2305 54.8414 26.7564 64.0586 21.0292 64.0586ZM21.0292 23.7902C16.4655 23.7902 12.6173 32.5595 12.6173 43.0293C12.6173 53.4991 16.4653 62.2684 21.0292 62.2684C25.5931 62.2684 29.4411 53.4991 29.4411 43.0293C29.4411 32.5595 25.5931 23.7902 21.0292 23.7902Z" fill="#777777"/>
<path d="M21.0291 64.0583C20.4922 64.0583 20.1342 63.7002 20.1342 63.1633V22.895C20.1342 22.358 20.4922 22 21.0291 22C21.566 22 21.9241 22.358 21.9241 22.895V63.1633C21.9241 63.7002 21.566 64.0583 21.0291 64.0583Z" fill="#777777"/>
<path d="M41.1633 43.9247H0.894955C0.358043 43.9247 0 43.5666 0 43.0297C0 42.4928 0.358043 42.1348 0.894955 42.1348H41.1633C41.7002 42.1348 42.0583 42.4928 42.0583 43.0297C42.0583 43.5666 41.7002 43.9247 41.1633 43.9247Z" fill="#777777"/>
<path d="M60 9L60 13.0005L56.1667 13.0005L56.1667 9L60 9ZM40.8333 9L40.8333 13.0005L37 13.0005L37 9L40.8333 9ZM60 13.998L60 17.9986L56.1667 17.9986L56.1667 14.0085L60 13.998ZM55.2058 13.998L55.2058 17.9986L51.3775 17.9986L51.3775 14.0085L55.2058 13.998ZM45.6275 13.998L45.6275 17.9986L41.7942 17.9986L41.7942 14.0085L45.6275 13.998ZM40.8333 13.998L40.8333 17.9986L37 17.9986L37 14.0085L40.8333 13.998ZM55.2058 18.9491L55.2058 22.9497L51.3775 22.9497L51.3775 18.9491L55.2058 18.9491ZM50.4167 18.9491L50.4167 22.9497L46.5833 22.9497L46.5833 18.9491L50.4167 18.9491ZM45.6275 18.9491L45.6275 22.9497L41.7942 22.9497L41.7942 18.9491L45.6275 18.9491ZM50.4167 23.9994L50.4167 28L46.5833 28L46.5833 23.9994L50.4167 23.9994Z" fill="url(#paint0_linear_130_6144)"/>
</g>
<defs>
<linearGradient id="paint0_linear_130_6144" x1="43.555" y1="-6.485" x2="75.0141" y2="17.8997" gradientUnits="userSpaceOnUse">
<stop stop-color="#EF711D"/>
<stop offset="1" stop-color="#FE9E34"/>
</linearGradient>
<clipPath id="clip0_130_6144">
<rect width="64" height="64" fill="white"/>
</clipPath>
</defs>
</svg>
