<svg width="64" height="64" viewBox="0 0 64 64" fill="none" xmlns="http://www.w3.org/2000/svg">
<g clip-path="url(#clip0_130_6101)">
<path d="M45.575 38C45.5749 37.7348 45.4696 37.4804 45.282 37.2929C45.0945 37.1054 44.8402 37 44.575 37H29.0681C28.8385 37 28.6159 37.0791 28.4377 37.2238C28.2595 37.3686 28.1365 37.5702 28.0894 37.7949L24.9463 52.7949C24.9194 52.9235 24.918 53.056 24.9423 53.1851C24.9666 53.3141 25.0161 53.4371 25.088 53.5471C25.1598 53.657 25.2526 53.7517 25.361 53.8258C25.4695 53.8998 25.5914 53.9518 25.72 53.9787C25.8485 54.0057 25.9811 54.007 26.1101 53.9827C26.2392 53.9584 26.3622 53.9089 26.4721 53.8371C26.5821 53.7652 26.6768 53.6725 26.7508 53.564C26.8249 53.4556 26.8769 53.3336 26.9038 53.2051L29.8804 39H44.575C44.8402 39 45.0945 38.8946 45.282 38.7071C45.4696 38.5196 45.5749 38.2652 45.575 38Z" fill="#FE9E34"/>
<path d="M42.844 41.5355C42.638 41.5122 42.4309 41.5005 42.2237 41.5004H42.2236C40.9793 41.485 39.7674 41.8965 38.7899 42.6664C37.8123 43.4363 37.1282 44.518 36.8516 45.7311C36.7133 46.3726 36.7119 47.0359 36.8475 47.6779C36.9831 48.3199 37.2526 48.9261 37.6384 49.4568C38.0535 50.0171 38.5805 50.485 39.1861 50.8308C39.7916 51.1765 40.4624 51.3926 41.1559 51.4653C41.3619 51.4886 41.5691 51.5004 41.7764 51.5004C43.0206 51.5159 44.2325 51.1044 45.2101 50.3345C46.1876 49.5646 46.8717 48.4829 47.1483 47.2697C47.2866 46.6283 47.288 45.9649 47.1524 45.3229C47.0169 44.6809 46.7474 44.0748 46.3615 43.544C45.9464 42.9837 45.4194 42.5158 44.8138 42.1701C44.2083 41.8243 43.5375 41.6082 42.844 41.5355ZM45.19 46.8633C44.9762 47.6844 44.4734 48.4009 43.7739 48.8812C43.0744 49.3615 42.2251 49.5734 41.382 49.4781C40.9836 49.4528 40.5952 49.3428 40.2428 49.1553C39.8904 48.9678 39.5821 48.7072 39.3386 48.3909C39.0951 48.0746 38.9219 47.71 38.8308 47.3214C38.7396 46.9328 38.7324 46.5292 38.8099 46.1376C39.0237 45.3164 39.5265 44.5999 40.226 44.1196C40.9255 43.6393 41.7748 43.4274 42.618 43.5228C43.0163 43.548 43.4047 43.658 43.7571 43.8455C44.1095 44.033 44.4178 44.2936 44.6613 44.6099C44.9048 44.9262 45.078 45.2908 45.1692 45.6795C45.2604 46.0681 45.2675 46.4717 45.19 46.8633H45.19Z" fill="#FE9E34"/>
<path d="M61 58H59.2241L63.9575 35.4102C64.0185 35.119 64.0138 34.818 63.9437 34.5289C63.8736 34.2398 63.74 33.97 63.5524 33.7391C63.3649 33.5082 63.1283 33.322 62.8597 33.1942C62.5911 33.0663 62.2974 33 62 33H26.8192C26.36 33 25.9148 33.158 25.5583 33.4475C25.2019 33.737 24.9559 34.1404 24.8617 34.5898L19.9705 58H3.99997V47.25C4.00383 44.992 4.77091 42.8017 6.17664 41.0347C7.58237 39.2677 9.54418 38.0278 11.7435 37.5164C12.0595 39.4703 13.5857 46.797 19.2061 51.8292L19.6759 49.5871C15.1824 45.0668 13.9797 38.9774 13.7219 37.2641C13.8152 37.2615 13.9061 37.25 14 37.25H21.7699C20.6828 36.6889 19.6555 36.0188 18.7039 35.25H14C10.8185 35.2536 7.76836 36.5191 5.51871 38.7687C3.26906 41.0184 2.00361 44.0685 1.99997 47.25V58.175C1.33282 58.4105 0.770468 58.8744 0.412374 59.4846C0.0542799 60.0948 -0.076477 60.8119 0.0432314 61.5093C0.16294 62.2066 0.5254 62.8391 1.0665 63.2949C1.6076 63.7507 2.29247 64.0005 2.99997 64H61C61.7956 64 62.5587 63.6839 63.1213 63.1213C63.6839 62.5587 64 61.7956 64 61C64 60.2043 63.6839 59.4413 63.1213 58.8787C62.5587 58.3161 61.7956 58 61 58ZM26.8192 35H62L57.1807 58H22L26.8192 35ZM61 62H2.99997C2.73476 62 2.4804 61.8946 2.29287 61.7071C2.10533 61.5196 1.99997 61.2652 1.99997 61C1.99997 60.7348 2.10533 60.4804 2.29287 60.2929C2.4804 60.1054 2.73476 60 2.99997 60H61C61.2652 60 61.5195 60.1054 61.7071 60.2929C61.8946 60.4804 62 60.7348 62 61C62 61.2652 61.8946 61.5196 61.7071 61.7071C61.5195 61.8946 61.2652 62 61 62Z" fill="#828282"/>
<path d="M39.782 31H42.4696C43.136 30.1709 43.7184 29.2778 44.2085 28.3338C44.4582 28.4426 44.7276 28.4992 45 28.5C46.5907 28.4982 48.1158 27.8655 49.2406 26.7407C50.3655 25.6158 50.9982 24.0908 51 22.5V19.5C50.9989 18.9398 50.9189 18.3825 50.7625 17.8446C50.0076 12.8788 47.4978 8.34803 43.6886 5.07413C39.8793 1.80022 35.0228 0 30 0C24.9772 0 20.1207 1.80022 16.3114 5.07413C12.5022 8.34803 9.99247 12.8788 9.23754 17.8446C9.08111 18.3825 9.00115 18.9398 9 19.5V22.5C9.0018 24.0908 9.63452 25.6158 10.7593 26.7407C11.8842 27.8655 13.4093 28.4982 15 28.5C15.2726 28.5 15.5423 28.4439 15.7923 28.3353C17.3252 31.2863 19.7332 33.6909 22.6864 35.2196L22.9043 34.1797C22.9727 33.8558 23.0815 33.5419 23.2281 33.2451C20.4037 31.6807 18.2043 29.1911 17 26.1953V15.8047C18.0385 13.2058 19.8322 10.9778 22.1495 9.40833C24.4668 7.83888 27.2013 7.00001 30 7.00001C32.7987 7.00001 35.5332 7.83888 37.8505 9.40833C40.1678 10.9778 41.9615 13.2058 43 15.8047V26.1953C42.2728 28.0031 41.1769 29.6394 39.782 31ZM48.7987 18.2519C48.932 19.1619 48.9993 20.0803 49 21V22.5C49 23.5609 48.5786 24.5783 47.8284 25.3284C47.0783 26.0786 46.0609 26.5 45 26.5V15.5C45.8423 15.5003 46.663 15.7665 47.3451 16.2606C48.0272 16.7548 48.5359 17.4517 48.7987 18.2519ZM15 26.5C13.9391 26.5 12.9217 26.0786 12.1716 25.3284C11.4214 24.5783 11 23.5609 11 22.5V21C11.0007 20.0803 11.068 19.1619 11.2013 18.2519C11.4641 17.4517 11.9728 16.7548 12.6549 16.2606C13.337 15.7665 14.1577 15.5003 15 15.5V26.5ZM30 5.00001C27.0648 5.0031 24.1869 5.81313 21.681 7.34155C19.1752 8.86997 17.1377 11.0579 15.7915 13.6662C15.5418 13.5574 15.2724 13.5008 15 13.5C14.0535 13.5004 13.1208 13.7264 12.2791 14.1593C13.6593 10.58 16.0911 7.50255 19.2543 5.33212C22.4175 3.16169 26.1638 2.00001 30 2.00001C33.8362 2.00001 37.5825 3.16169 40.7457 5.33212C43.9089 7.50255 46.3407 10.58 47.7209 14.1593C46.8792 13.7264 45.9465 13.5004 45 13.5C44.7274 13.5001 44.4577 13.5561 44.2077 13.6647C42.8613 11.0568 40.824 8.86921 38.3182 7.34108C35.8125 5.81295 32.9349 5.00309 30 5.00001Z" fill="#828282"/>
</g>
<defs>
<clipPath id="clip0_130_6101">
<rect width="64" height="64" fill="white"/>
</clipPath>
</defs>
</svg>
