<svg width="330" height="154" viewBox="0 0 330 154" fill="none" xmlns="http://www.w3.org/2000/svg">
<path d="M329.944 153.282L304.506 153.282L304.506 127.845L329.944 127.845L329.944 153.282ZM329.944 26.1544L304.506 26.1544L304.506 0.717907L329.944 0.717905L329.944 26.1544ZM298.173 153.282L272.741 153.282L272.741 127.845L298.173 127.845L298.173 153.282ZM298.173 121.513L272.741 121.513L272.741 96.0762L298.173 96.0762L298.173 121.513ZM298.173 57.9222L272.741 57.9222L272.741 32.487L298.173 32.487L298.173 57.9222ZM298.173 26.1544L272.741 26.1544L272.741 0.71791L298.173 0.717907L298.173 26.1544ZM266.771 121.513L241.389 121.513L241.389 96.0762L266.771 96.0762L266.771 121.513ZM266.771 89.7436L241.389 89.7436L241.389 64.3084L266.771 64.3084L266.771 89.7436ZM266.771 57.9222L241.389 57.9222L241.389 32.487L266.771 32.487L266.771 57.9222ZM234.689 89.7436L209.256 89.7436L209.256 64.3084L234.638 64.3084L234.689 89.7436Z" fill="#4F4F4F"/>
<path d="M225.315 153.282L199.934 153.282L199.934 127.845L225.315 127.845L225.315 153.282ZM225.315 26.1544L199.934 26.1544L199.934 0.717907L225.315 0.717905L225.315 26.1544ZM193.545 153.282L168.112 153.282L168.112 127.845L193.545 127.845L193.545 153.282ZM193.545 121.513L168.112 121.513L168.112 96.0762L193.545 96.0762L193.545 121.513ZM193.545 57.9222L168.112 57.9222L168.112 32.487L193.545 32.487L193.545 57.9222ZM193.545 26.1544L168.112 26.1544L168.112 0.71791L193.545 0.717907L193.545 26.1544ZM162.143 121.513L136.71 121.513L136.71 96.0762L162.143 96.0762L162.143 121.513ZM162.143 89.7436L136.71 89.7436L136.71 64.3084L162.143 64.3084L162.143 89.7436ZM162.143 57.9222L136.71 57.9222L136.71 32.487L162.143 32.487L162.143 57.9222ZM130.01 89.7436L104.628 89.7436L104.628 64.3084L130.01 64.3084L130.01 89.7436Z" fill="#4F4F4F"/>
<path d="M120.688 153.282L95.306 153.282L95.306 127.845L120.687 127.845L120.688 153.282ZM120.687 26.1544L95.306 26.1544L95.306 0.717907L120.687 0.717905L120.687 26.1544ZM88.9172 153.282L63.4845 153.282L63.4845 127.845L88.9172 127.845L88.9172 153.282ZM88.9172 121.513L63.4845 121.513L63.4845 96.0762L88.9172 96.0762L88.9172 121.513ZM88.9171 57.9222L63.4845 57.9222L63.4845 32.487L88.9171 32.487L88.9171 57.9222ZM88.9171 26.1544L63.4845 26.1544L63.4845 0.71791L88.9171 0.717907L88.9171 26.1544ZM57.5148 121.513L32.0822 121.513L32.0822 96.0762L57.5148 96.0762L57.5148 121.513ZM57.5148 89.7436L32.0822 89.7436L32.0822 64.3084L57.5148 64.3084L57.5148 89.7436ZM57.5148 57.9222L32.0822 57.9222L32.0822 32.487L57.5148 32.487L57.5148 57.9222ZM25.3816 89.7436L6.2674e-05 89.7436L6.04504e-05 64.3084L25.3816 64.3084L25.3816 89.7436Z" fill="#4F4F4F"/>
</svg>
