<svg width="37" height="37" viewBox="0 0 37 37" fill="none" xmlns="http://www.w3.org/2000/svg">
<path d="M1.12087 35.7696C-0.0507057 34.598 -0.0507057 32.6985 1.12087 31.5269L31.5265 1.12136C32.698 -0.0502185 34.5975 -0.0502168 35.7691 1.12136C36.9407 2.29293 36.9407 4.19242 35.7691 5.364L5.36351 35.7696C4.19193 36.9412 2.29244 36.9412 1.12087 35.7696Z" fill="white"/>
<path d="M35.7693 35.7696C34.5977 36.9412 32.6982 36.9412 31.5267 35.7696L1.12107 5.36403C-0.0505016 4.19246 -0.0504999 2.29296 1.12107 1.12139C2.29265 -0.0501816 4.19214 -0.0501806 5.36371 1.12139L35.7693 31.527C36.9409 32.6986 36.9409 34.598 35.7693 35.7696Z" fill="white"/>
</svg>
