<svg width="55" height="149" viewBox="0 0 55 149" fill="none" xmlns="http://www.w3.org/2000/svg">
<path d="M0 148.164L-3.95766e-07 139.11L9.05362 139.11L9.05362 148.164L0 148.164ZM45.2485 148.164L45.2485 139.11L54.3021 139.11L54.3021 148.164L45.2485 148.164ZM-4.9429e-07 136.856L-8.89977e-07 127.804L9.05362 127.804L9.05362 136.856L-4.9429e-07 136.856ZM11.3076 136.856L11.3076 127.804L20.3612 127.804L20.3612 136.856L11.3076 136.856ZM33.9414 136.856L33.9414 127.804L42.9946 127.804L42.9946 136.856L33.9414 136.856ZM45.2485 136.856L45.2485 127.804L54.3021 127.804L54.3021 136.856L45.2485 136.856ZM11.3076 125.679L11.3076 116.645L20.3612 116.645L20.3612 125.679L11.3076 125.679ZM22.6152 125.679L22.6152 116.645L31.6683 116.645L31.6683 125.679L22.6152 125.679ZM33.9414 125.679L33.9414 116.645L42.9946 116.645L42.9946 125.679L33.9414 125.679ZM22.6152 114.26L22.6152 105.208L31.6683 105.208L31.6683 114.242L22.6152 114.26Z" fill="#FE9E34"/>
<path d="M0.000244141 95.8936L0.000243746 86.8595L9.05386 86.8595L9.05386 95.8936L0.000244141 95.8936ZM45.2488 95.8936L45.2488 86.8595L54.3024 86.8595L54.3024 95.8936L45.2488 95.8936ZM0.000243646 84.5855L0.000243251 75.5333L9.05386 75.5333L9.05386 84.5855L0.000243646 84.5855ZM11.3078 84.5855L11.3078 75.5333L20.3614 75.5333L20.3614 84.5855L11.3078 84.5855ZM33.9416 84.5855L33.9416 75.5333L42.9948 75.5333L42.9948 84.5855L33.9416 84.5855ZM45.2488 84.5855L45.2488 75.5333L54.3024 75.5333L54.3024 84.5855L45.2488 84.5855ZM11.3078 73.4085L11.3078 64.3562L20.3614 64.3562L20.3614 73.4085L11.3078 73.4085ZM22.6154 73.4085L22.6154 64.3562L31.6686 64.3562L31.6686 73.4085L22.6154 73.4085ZM33.9416 73.4085L33.9416 64.3562L42.9948 64.3562L42.9948 73.4085L33.9416 73.4085ZM22.6154 61.9713L22.6154 52.9372L31.6686 52.9372L31.6686 61.9713L22.6154 61.9713Z" fill="#FE9E34"/>
<path d="M0.000244141 43.623L0.000243746 34.589L9.05386 34.589L9.05386 43.623L0.000244141 43.623ZM45.2488 43.623L45.2488 34.589L54.3024 34.589L54.3024 43.623L45.2488 43.623ZM0.000243646 32.315L0.000243251 23.2628L9.05386 23.2628L9.05386 32.315L0.000243646 32.315ZM11.3078 32.315L11.3078 23.2628L20.3614 23.2628L20.3614 32.315L11.3078 32.315ZM33.9416 32.315L33.9416 23.2628L42.9948 23.2628L42.9948 32.315L33.9416 32.315ZM45.2488 32.315L45.2488 23.2628L54.3024 23.2628L54.3024 32.315L45.2488 32.315ZM11.3078 21.138L11.3078 12.0857L20.3614 12.0857L20.3614 21.138L11.3078 21.138ZM22.6154 21.1379L22.6154 12.0857L31.6686 12.0857L31.6686 21.1379L22.6154 21.1379ZM33.9416 21.1379L33.9416 12.0857L42.9948 12.0857L42.9948 21.1379L33.9416 21.1379ZM22.6154 9.70075L22.6154 0.66669L31.6686 0.666689L31.6686 9.70075L22.6154 9.70075Z" fill="#FE9E34"/>
</svg>
