<svg width="12" height="12" viewBox="0 0 12 12" fill="none" xmlns="http://www.w3.org/2000/svg">
<path d="M1.9001 0.240481L0.24424 1.89634L1.91647 3.56857L3.57233 1.91271L1.9001 0.240481Z" fill="#181818"/>
<path d="M3.98912 2.3295L2.33326 3.98536L4.00549 5.65759L5.66135 4.00173L3.98912 2.3295Z" fill="#181818"/>
<path d="M6.39066 3.93897L8.04651 2.28311L9.71874 3.95534L8.06288 5.61119L6.39066 3.93897Z" fill="#181818"/>
<path d="M5.99358 4.33604L4.33772 5.9919L6.00995 7.66413L7.6658 6.00827L5.99358 4.33604Z" fill="#181818"/>
<path d="M0.215942 10.1138L1.8718 8.45791L3.54403 10.1301L1.88817 11.786L0.215942 10.1138Z" fill="#181818"/>
<path d="M10.1151 0.2146L8.45925 1.87046L10.1315 3.54268L11.7873 1.88683L10.1151 0.2146Z" fill="#181818"/>
<path d="M2.2812 8.04851L3.93981 6.38989L5.61204 8.06212L3.95343 9.72073L2.2812 8.04851Z" fill="#181818"/>
<path d="M7.99738 6.33776L6.34152 7.99362L8.01653 9.66863L9.67239 8.01277L7.99738 6.33776Z" fill="#181818"/>
<path d="M8.43327 10.0854L10.0891 8.42951L11.7614 10.1017L10.1055 11.7576L8.43327 10.0854Z" fill="#181818"/>
</svg>
