<svg width="11" height="16" viewBox="0 0 11 16" fill="none" xmlns="http://www.w3.org/2000/svg">
<path d="M2.21547 2.16929H3.98872V3.95575H2.21547V2.16929ZM2.21547 11.1016H3.98872V12.888H2.21547V11.1016ZM4.43089 2.16929H6.20416V3.95575H4.43552L4.43089 2.16929ZM4.43089 4.40354H6.20416V6.18767H4.43552L4.43089 4.40354ZM4.43089 8.86735H6.20416V10.6538H4.43552L4.43089 8.86735ZM4.43089 11.1016H6.20416V12.888H4.43552L4.43089 11.1016ZM6.62548 4.40354H8.39875V6.18767H6.62548V4.40354ZM6.62548 6.63543H8.39875V8.42189H6.62548V6.63543ZM6.62548 8.86735H8.39875V10.6538H6.62548V8.86735ZM8.86407 6.63543H10.6373V8.42189H8.86407V6.63543Z" fill="white"/>
<path d="M1.7733 6.95024e-10L4.8831e-05 1.25129e-09L4.88304e-05 1.78646L1.7733 1.78646V6.95024e-10Z" fill="white"/>
<path d="M3.98874 0L2.21547 5.5627e-10L2.2201 1.78646H3.98874V0Z" fill="white"/>
<path d="M1.77327 13.2709H2.2907e-05L2.29064e-05 15.0573H1.77327V13.2709Z" fill="white"/>
<path d="M3.98872 13.2709H2.21544L2.22007 15.0573H3.98872V13.2709Z" fill="white"/>
<path d="M1.7733 6.95024e-10L4.8831e-05 1.25129e-09L4.88304e-05 1.78646L1.7733 1.78646V6.95024e-10Z" fill="white"/>
<path d="M1.77325 2.16662H2.69406e-08L2.63763e-08 3.95309L1.77325 3.95309V2.16662Z" fill="white"/>
<path d="M1.77325 4.3785H5.64341e-10L0 6.16496H1.77325V4.3785Z" fill="white"/>
<path d="M3.98638 4.3785H2.21313V6.16496H3.98638V4.3785Z" fill="white"/>
<path d="M1.77325 6.59032H3.99086e-09L3.42652e-09 8.37679H1.77325V6.59032Z" fill="white"/>
<path d="M6.20531 6.59032H4.43206V8.37679H6.20531V6.59032Z" fill="white"/>
<path d="M3.98638 6.59032H2.21313V8.37679H3.98638V6.59032Z" fill="white"/>
<path d="M1.77325 8.86963H6.61294e-09L6.04859e-09 10.6561H1.77325V8.86963Z" fill="white"/>
<path d="M3.98638 8.86963H2.21313V10.6561H3.98638V8.86963Z" fill="white"/>
<path d="M1.77325 11.0997H9.82163e-09L9.25729e-09 12.8862H1.77325V11.0997Z" fill="white"/>
</svg>
