<svg width="16" height="16" viewBox="0 0 16 16" fill="none" xmlns="http://www.w3.org/2000/svg">
<path d="M11.0288 2.53797C10.4816 2.08789 9.84081 1.76566 9.15318 1.59479C8.46555 1.42391 7.74845 1.40869 7.0542 1.55025C6.12978 1.73698 5.28166 2.19409 4.61745 2.8636C3.95324 3.53311 3.50288 4.38483 3.3235 5.3107C3.19251 6.00491 3.21631 6.71947 3.39321 7.40342C3.57011 8.08737 3.89576 8.72386 4.34691 9.2675C4.76561 9.73998 5.00561 10.3442 5.02522 10.9752V12.7602C5.02522 13.2336 5.21329 13.6876 5.54804 14.0224C5.8828 14.3572 6.33683 14.5452 6.81025 14.5452H9.19028C9.66369 14.5452 10.1177 14.3572 10.4525 14.0224C10.7872 13.6876 10.9753 13.2336 10.9753 12.7602V11.0882C10.9953 10.3916 11.2512 9.72234 11.7012 9.19015C12.4897 8.2148 12.8613 6.96769 12.7354 5.71984C12.6095 4.472 11.9962 3.32426 11.0288 2.52607V2.53797ZM9.78528 12.7602C9.78528 12.918 9.72259 13.0693 9.61101 13.1809C9.49942 13.2925 9.34808 13.3552 9.19028 13.3552H6.81025C6.65244 13.3552 6.5011 13.2925 6.38951 13.1809C6.27793 13.0693 6.21524 12.918 6.21524 12.7602V12.1652H9.78528V12.7602ZM10.7789 8.45234C10.1807 9.16194 9.83161 10.0482 9.78528 10.9752H8.59527V9.19015C8.59527 9.03234 8.53258 8.881 8.42099 8.76942C8.30941 8.65783 8.15807 8.59514 8.00026 8.59514C7.84245 8.59514 7.69111 8.65783 7.57953 8.76942C7.46794 8.881 7.40525 9.03234 7.40525 9.19015V10.9752H6.21524C6.19954 10.0637 5.86237 9.18703 5.26323 8.49994C4.86793 8.02631 4.60211 7.45833 4.49169 6.85138C4.38126 6.24443 4.43001 5.61922 4.63316 5.03672C4.83632 4.45421 5.18696 3.93429 5.65089 3.52766C6.11481 3.12102 6.6762 2.84154 7.2803 2.71647C7.79948 2.60957 8.33594 2.61963 8.85075 2.7459C9.36555 2.87218 9.84578 3.11151 10.2566 3.44651C10.6673 3.78152 10.9984 4.20379 11.2256 4.68268C11.4528 5.16157 11.5706 5.68505 11.5703 6.21511C11.5747 7.03019 11.2949 7.82131 10.7789 8.45234Z" fill="#181818"/>
</svg>
