<svg width="16" height="16" viewBox="0 0 16 16" fill="none" xmlns="http://www.w3.org/2000/svg">
<path d="M12.8771 7.75541H8.21043V3.08875C8.21043 2.68875 7.94376 2.42208 7.54376 2.42208C4.21043 2.42208 1.54376 5.08875 1.54376 8.42208C1.54376 11.7554 4.21043 14.4221 7.54376 14.4221C10.8771 14.4221 13.5438 11.7554 13.5438 8.42208C13.5438 8.02208 13.2771 7.75541 12.8771 7.75541ZM8.21043 13.0221C5.6771 13.4221 3.2771 11.6221 2.94376 9.08875C2.54376 6.55541 4.34376 4.15541 6.8771 3.82208V8.42208C6.8771 8.82208 7.14376 9.08875 7.54376 9.08875H12.1438C11.8771 11.1554 10.2771 12.7554 8.21043 13.0221ZM10.2104 1.08875C9.81043 1.08875 9.54376 1.35541 9.54376 1.75541V5.75541C9.54376 6.15541 9.81043 6.42208 10.2104 6.42208H14.2104C14.6104 6.42208 14.8771 6.15541 14.8771 5.75541C14.8771 3.15541 12.8104 1.08875 10.2104 1.08875ZM10.8771 5.08875V2.48875C12.2104 2.75541 13.2104 3.75541 13.4771 5.08875H10.8771Z" fill="#181818"/>
</svg>
