<svg width="12" height="16" viewBox="0 0 12 16" fill="none" xmlns="http://www.w3.org/2000/svg">
<path d="M2.21547 2.16929H3.98872V3.95575H2.21547V2.16929ZM2.21547 11.1016H3.98872V12.888H2.21547V11.1016Z" fill="white"/>
<path d="M1.7733 6.95024e-10L4.8831e-05 1.25129e-09L4.88304e-05 1.78646L1.7733 1.78646V6.95024e-10Z" fill="white"/>
<path d="M3.98874 0L2.21547 5.5627e-10L2.2201 1.78646H3.98874V0Z" fill="white"/>
<path d="M1.77327 13.2709H2.2907e-05L2.29064e-05 15.0573H1.77327V13.2709Z" fill="white"/>
<path d="M3.98872 13.2709H2.21544L2.22007 15.0573H3.98872V13.2709Z" fill="white"/>
<path d="M1.7733 6.95024e-10L4.8831e-05 1.25129e-09L4.88304e-05 1.78646L1.7733 1.78646V6.95024e-10Z" fill="white"/>
<path d="M1.77325 2.16662H2.69406e-08L2.63763e-08 3.95309L1.77325 3.95309V2.16662Z" fill="white"/>
<path d="M1.77325 4.3785H5.64341e-10L0 6.16496H1.77325V4.3785Z" fill="white"/>
<path d="M3.98638 4.3785H2.21313V6.16496H3.98638V4.3785Z" fill="white"/>
<path d="M1.77325 6.59032H3.99086e-09L3.42652e-09 8.37679H1.77325V6.59032Z" fill="white"/>
<path d="M3.98638 6.59032H2.21313V8.37679H3.98638V6.59032Z" fill="white"/>
<path d="M1.77325 8.86963H6.61294e-09L6.04859e-09 10.6561H1.77325V8.86963Z" fill="white"/>
<path d="M3.98638 8.86963H2.21313V10.6561H3.98638V8.86963Z" fill="white"/>
<path d="M1.77325 11.0997H9.82163e-09L9.25729e-09 12.8862H1.77325V11.0997Z" fill="white"/>
<path d="M10.2155 2.16929H11.9887V3.95575H10.2155V2.16929ZM10.2155 11.1016H11.9887V12.888H10.2155V11.1016Z" fill="white"/>
<path d="M9.7733 6.95024e-10L8.00005 1.25129e-09V1.78646L9.7733 1.78646V6.95024e-10Z" fill="white"/>
<path d="M11.9887 0L10.2155 5.5627e-10L10.2201 1.78646H11.9887V0Z" fill="white"/>
<path d="M9.77327 13.2709H8.00002V15.0573H9.77327V13.2709Z" fill="white"/>
<path d="M11.9887 13.2709H10.2154L10.2201 15.0573H11.9887V13.2709Z" fill="white"/>
<path d="M9.7733 6.95024e-10L8.00005 1.25129e-09V1.78646L9.7733 1.78646V6.95024e-10Z" fill="white"/>
<path d="M9.77325 2.16662H8V3.95309L9.77325 3.95309V2.16662Z" fill="white"/>
<path d="M9.77325 4.3785H8V6.16496H9.77325V4.3785Z" fill="white"/>
<path d="M11.9864 4.3785H10.2131V6.16496H11.9864V4.3785Z" fill="white"/>
<path d="M9.77325 6.59032H8V8.37679H9.77325V6.59032Z" fill="white"/>
<path d="M11.9864 6.59032H10.2131V8.37679H11.9864V6.59032Z" fill="white"/>
<path d="M9.77325 8.86963H8V10.6561H9.77325V8.86963Z" fill="white"/>
<path d="M11.9864 8.86963H10.2131V10.6561H11.9864V8.86963Z" fill="white"/>
<path d="M9.77325 11.0997H8V12.8862H9.77325V11.0997Z" fill="white"/>
</svg>
