<svg width="20" height="20" viewBox="0 0 20 20" fill="none" xmlns="http://www.w3.org/2000/svg">
<path d="M5.17414 18C4.66062 17.6271 4.13908 17.2623 3.65364 16.8533C3.12408 16.4003 2.59051 15.9472 2.19334 15.3619C1.94059 14.993 1.9446 14.6362 2.15322 14.2513C2.49021 13.6379 2.94355 13.1166 3.45305 12.6395C3.93046 12.1945 4.43997 11.7896 5.04977 11.537C5.28646 11.4367 5.53119 11.3646 5.79196 11.3886C5.99255 11.4087 6.15703 11.4969 6.29745 11.6412C6.55019 11.9018 6.75881 12.1905 6.9594 12.4912C7.10784 12.7157 7.24424 12.9523 7.40472 13.1688C7.78985 13.698 8.21913 13.8343 8.853 13.6619C9.2943 13.5416 9.67941 13.3131 10.0245 13.0284C11.1237 12.1263 12.1267 11.128 13.0253 10.0295C13.3462 9.63654 13.6071 9.20355 13.6953 8.69038C13.7835 8.1812 13.6552 7.75621 13.2178 7.44346C12.8608 7.19091 12.4757 6.98241 12.1267 6.71779C11.9742 6.60154 11.8258 6.47723 11.6813 6.34892C11.3885 6.0923 11.3283 5.77562 11.4165 5.41475C11.5369 4.91757 11.7977 4.49258 12.1026 4.09572C12.6201 3.41411 13.2219 2.82074 13.94 2.34763C14.0925 2.24738 14.2569 2.16719 14.4214 2.08701C14.7384 1.93464 15.0232 1.99482 15.3081 2.17119C15.7092 2.41982 16.0422 2.74856 16.3592 3.09736C16.9208 3.71479 17.4303 4.37234 17.9037 5.05795C17.9318 5.10201 17.9679 5.13814 18 5.18219L18 5.46288C17.992 5.48694 17.9799 5.511 17.9799 5.535C17.9238 6.12843 17.7713 6.70173 17.5828 7.26303C17.0251 8.89487 16.2308 10.4023 15.2679 11.8297C14.5458 12.9042 13.7033 13.8664 12.6683 14.6562C11.4888 15.5583 10.217 16.3081 8.87305 16.9335C8.0747 17.3024 7.25628 17.6191 6.39775 17.8276C6.08884 17.9038 5.77591 17.9399 5.46298 17.996L5.18216 17.996L5.17414 18Z" fill="white"/>
</svg>
