<svg width="40" height="40" viewBox="0 0 40 40" fill="none" xmlns="http://www.w3.org/2000/svg">
<path d="M39.1076 30.1054H0.856231C0.346213 30.1054 0.00610352 29.7649 0.00610352 29.2544V5.17542C0.00610352 4.66491 0.346213 4.32446 0.856231 4.32446H39.1076C39.6176 4.32446 39.9577 4.66491 39.9577 5.17542V29.2551C39.9577 29.7657 39.6176 30.1058 39.1076 30.1058V30.1054ZM1.7065 28.4037H38.2581L38.2578 6.02624H1.70622L1.7065 28.4037Z" fill="#E0E0E0"/>
<path d="M19.9817 6.0264C19.4717 6.0264 19.1316 5.68596 19.1316 5.17544V1.85707C19.1316 1.34655 19.4717 1.0061 19.9817 1.0061C20.4917 1.0061 20.8318 1.34655 20.8318 1.85707V5.17544C20.8318 5.68596 20.4917 6.0264 19.9817 6.0264Z" fill="#E0E0E0"/>
<path d="M19.9817 39.976C19.4717 39.976 19.1316 39.6356 19.1316 39.1251V29.2553C19.1316 28.7447 19.4717 28.4043 19.9817 28.4043C20.4917 28.4043 20.8318 28.7447 20.8318 29.2553V39.0404C20.8318 39.6359 20.4917 39.9763 19.9817 39.9763V39.976Z" fill="#E0E0E0"/>
<path d="M6.8065 39.9761C6.63659 39.9761 6.46639 39.9761 6.38158 39.8909C5.95666 39.6356 5.87156 39.1251 6.12657 38.6998L12.1617 28.83C12.4167 28.4046 12.9267 28.3195 13.3516 28.5747C13.7766 28.83 13.8617 29.3405 13.6066 29.7658L7.57153 39.5503C7.40133 39.8055 7.14632 39.9759 6.8065 39.9759V39.9761Z" fill="#E0E0E0"/>
<path d="M33.1571 39.9759C32.9021 39.9759 32.562 39.8058 32.3921 39.5505L26.3569 29.6807C26.1019 29.2554 26.2718 28.7449 26.6119 28.4896C27.0369 28.2344 27.5469 28.4044 27.8019 28.7449L33.837 38.6147C34.092 39.04 33.9221 39.5505 33.582 39.8058C33.4121 39.9759 33.3273 39.9759 33.1571 39.9759Z" fill="#E0E0E0"/>
<path d="M6.8065 24.6603C6.63659 24.6603 6.38158 24.5752 6.21138 24.4051C5.87127 24.0646 5.87127 23.5541 6.21138 23.214L13.0115 15.9815C13.1814 15.8114 13.4364 15.7263 13.6915 15.7263C13.9465 15.7263 14.2015 15.8963 14.2866 16.0667L17.0066 19.7255L23.3821 12.8332C23.552 12.6631 23.807 12.578 24.062 12.578C24.317 12.578 24.572 12.748 24.7419 12.9184L27.4619 16.6621L32.6472 10.1105C32.9022 9.7701 33.4974 9.68521 33.8372 9.94047C34.1773 10.1957 34.2621 10.7914 34.0071 11.1316L28.1419 18.5341C27.972 18.7042 27.717 18.8746 27.4619 18.8746C27.2069 18.8746 26.9519 18.7045 26.782 18.5341L24.062 14.7052L17.6868 21.6824C17.5169 21.8525 17.2619 21.9377 17.0069 21.9377C16.7519 21.9377 16.4968 21.7676 16.3269 21.5972L13.5215 17.9384L7.40133 24.4051C7.23142 24.5752 7.0615 24.6603 6.80649 24.6603H6.8065Z" fill="#E0E0E0"/>
</svg>
