<svg width="40" height="40" viewBox="0 0 40 40" fill="none" xmlns="http://www.w3.org/2000/svg">
<g clip-path="url(#clip0_288_4598)">
<path d="M33.3275 34.5538C33.0725 34.5538 32.9026 34.4687 32.7324 34.2988C29.3322 30.9836 24.7418 29.1135 19.9819 29.1135C15.222 29.1135 10.7163 30.9836 7.23146 34.2988C6.89135 34.6389 6.38133 34.6389 6.04151 34.2988C2.13128 30.5587 0.00610352 25.4587 0.00610352 20.0183C0.00610352 14.5778 2.13128 9.47764 6.04122 5.73775C6.38133 5.39764 6.89135 5.39764 7.23117 5.73775C10.6314 9.05287 15.2217 10.923 19.9816 10.923C24.7417 10.923 29.2472 9.05287 32.7321 5.73775C33.0722 5.39764 33.5822 5.39764 33.922 5.73775C37.8323 9.56288 39.9571 14.5778 39.9571 20.0183C39.9571 25.4587 37.832 30.5589 33.922 34.2988C33.7524 34.4687 33.4974 34.5538 33.3275 34.5538H33.3275ZM6.63605 7.52281C3.40603 10.923 1.70578 15.3428 1.70578 20.0183C1.70578 24.6937 3.49084 29.1133 6.63605 32.5137C10.2913 29.1986 14.9661 27.4135 19.9818 27.4135C24.912 27.4135 29.5869 29.1986 33.3275 32.5137C36.5575 29.1135 38.2578 24.6937 38.2578 20.0183C38.2578 15.3428 36.4727 10.9232 33.3275 7.52281C29.6723 10.8379 24.9974 12.623 19.9818 12.623C15.0515 12.623 10.3767 10.7528 6.63605 7.52281Z" fill="#E0E0E0"/>
<path d="M19.9819 12.623C14.7966 12.623 9.78152 10.583 6.04163 6.92773C5.87144 6.75782 5.78662 6.58791 5.78662 6.3329C5.78662 6.07789 5.87172 5.90798 6.04163 5.73778C9.78167 2.08255 14.7965 0.0424805 19.9819 0.0424805C25.1673 0.0424805 30.1823 2.08255 33.9221 5.73778C34.0921 5.90769 34.1772 6.07789 34.1772 6.3329C34.1772 6.58791 34.0921 6.75782 33.9221 6.92802C30.1821 10.583 25.1673 12.623 19.9819 12.623V12.623ZM7.91121 6.33291C11.2263 9.30792 15.4762 10.9231 19.9819 10.9231C24.4869 10.9231 28.7374 9.30792 32.0526 6.33291C28.7374 3.35761 24.4868 1.74274 19.9819 1.74274C15.477 1.74274 11.2263 3.35761 7.91121 6.33291Z" fill="#E0E0E0"/>
<path d="M19.9819 39.9942C14.7966 39.9942 9.78152 37.9541 6.04163 34.2989C5.87172 34.129 5.78662 33.9588 5.78662 33.7038C5.78662 33.4487 5.87172 33.2788 6.04163 33.1086C9.78167 29.4534 14.7119 27.4133 19.9819 27.4133C25.1672 27.4133 30.1823 29.4534 33.9221 33.1086C34.0921 33.2785 34.1772 33.4487 34.1772 33.7038C34.1772 33.9588 34.0921 34.1287 33.9221 34.2989C30.1821 37.9541 25.1673 39.9942 19.9819 39.9942ZM7.91121 33.7038C11.2263 36.6788 15.4762 38.2939 19.9819 38.2939C24.4869 38.2939 28.7374 36.6788 32.0526 33.7038C28.7374 30.7287 24.4875 29.1136 19.9819 29.1136C15.4768 29.1136 11.2263 30.7287 7.91121 33.7038Z" fill="#E0E0E0"/>
<path d="M19.9819 39.9941C14.5416 39.9941 10.2915 31.2386 10.2915 20.0182C10.2915 8.79779 14.5416 0.0422363 19.9819 0.0422363C25.4221 0.0422363 29.6722 8.79779 29.6722 20.0182C29.6722 31.2386 25.4221 39.9941 19.9819 39.9941ZM19.9819 1.74278C15.6467 1.74278 11.9913 10.0728 11.9913 20.0182C11.9913 29.9636 15.6465 38.2936 19.9819 38.2936C24.3172 38.2936 27.9724 29.9636 27.9724 20.0182C27.9724 10.0728 24.3172 1.74278 19.9819 1.74278Z" fill="#E0E0E0"/>
<path d="M19.9817 39.9941C19.4717 39.9941 19.1316 39.654 19.1316 39.144V0.892608C19.1316 0.38259 19.4717 0.0424805 19.9817 0.0424805C20.4917 0.0424805 20.8318 0.38259 20.8318 0.892608V39.144C20.8318 39.654 20.4917 39.9941 19.9817 39.9941Z" fill="#E0E0E0"/>
<path d="M39.1074 20.8685H0.855987C0.345969 20.8685 0.00585938 20.5284 0.00585938 20.0183C0.00585938 19.5083 0.345969 19.1682 0.855987 19.1682H39.1074C39.6174 19.1682 39.9575 19.5083 39.9575 20.0183C39.9575 20.5284 39.6174 20.8685 39.1074 20.8685Z" fill="#E0E0E0"/>
</g>
<defs>
<clipPath id="clip0_288_4598">
<rect width="40" height="40" fill="white"/>
</clipPath>
</defs>
</svg>
