<svg width="16" height="13" viewBox="0 0 16 13" fill="none" xmlns="http://www.w3.org/2000/svg">
<path d="M16 13L16 10.2628L13.3333 10.2628L13.3333 13L16 13ZM2.66667 13L2.66667 10.2628L3.34993e-08 10.2628L0 13L2.66667 13ZM16 9.58028L16 6.84305L13.3333 6.84305L13.3333 9.57313L16 9.58028ZM12.6649 9.58028L12.6649 6.84305L10.0017 6.84305L10.0017 9.57313L12.6649 9.58028ZM6.00173 9.58028L6.00173 6.84305L3.3351 6.84305L3.3351 9.57313L6.00173 9.58028ZM2.66667 9.58028L2.66667 6.84305L7.53524e-08 6.84305L4.19401e-08 9.57313L2.66667 9.58028ZM12.6649 6.19272L12.6649 3.45549L10.0017 3.45549L10.0017 6.19272L12.6649 6.19272ZM9.33334 6.19272L9.33334 3.45549L6.66666 3.45549L6.66666 6.19272L9.33334 6.19272ZM6.00173 6.19272L6.00173 3.45549L3.3351 3.45549L3.3351 6.19272L6.00173 6.19272ZM9.33334 2.73723L9.33334 -7.73926e-08L6.66666 -1.0835e-07L6.66666 2.73723L9.33334 2.73723Z" fill="#777777"/>
</svg>
