<svg width="6" height="10" viewBox="0 0 6 10" fill="none" xmlns="http://www.w3.org/2000/svg">
<path d="M4.2375 3.11909C4.2375 2.82576 4.1275 2.58743 3.9075 2.40409C3.69483 2.22076 3.4125 2.12909 3.0605 2.12909C2.52819 2.12909 2.14474 2.31416 1.91015 2.6843C1.75336 2.93168 1.51414 3.14109 1.22125 3.14109C0.835999 3.14109 0.528051 2.79734 0.6799 2.44327C0.817186 2.12316 1.02405 1.84244 1.3005 1.60109C1.7625 1.19776 2.3565 0.996094 3.0825 0.996094C3.82316 0.996094 4.40983 1.19043 4.8425 1.57909C5.2825 1.96776 5.5025 2.45909 5.5025 3.05309C5.5025 3.27309 5.47316 3.47843 5.4145 3.66909C5.35583 3.85976 5.29716 4.01009 5.2385 4.12009C5.18716 4.23009 5.0845 4.35476 4.9305 4.49409C4.78383 4.62609 4.68116 4.71409 4.6225 4.75809C4.56383 4.79476 4.44283 4.87543 4.2595 5.00009C4.2375 5.01476 4.18983 5.04776 4.1165 5.09909C4.04316 5.15043 3.9955 5.18343 3.9735 5.19809C3.9515 5.21276 3.9075 5.24576 3.8415 5.29709C3.78283 5.34109 3.7425 5.37409 3.7205 5.39609C3.70583 5.41076 3.6765 5.44376 3.6325 5.49509C3.5885 5.53909 3.55916 5.57576 3.5445 5.60509C3.52983 5.63443 3.50783 5.67476 3.4785 5.72609C3.44916 5.77743 3.42716 5.82876 3.4125 5.88009C3.40516 5.92409 3.39783 5.97543 3.3905 6.03409C3.38316 6.09276 3.3795 6.15509 3.3795 6.22109C3.3795 6.3426 3.281 6.44109 3.1595 6.44109H2.5215C2.33924 6.44109 2.1915 6.29335 2.1915 6.11109C2.1915 5.79576 2.24283 5.52443 2.3455 5.29709C2.4555 5.06243 2.5765 4.88643 2.7085 4.76909C2.8405 4.64443 3.04583 4.49043 3.3245 4.30709C3.53716 4.16043 3.69116 4.05043 3.7865 3.97709C3.88916 3.89643 3.98816 3.77909 4.0835 3.62509C4.18616 3.47109 4.2375 3.30243 4.2375 3.11909ZM2.2355 7.61809C2.39683 7.46409 2.59116 7.38709 2.8185 7.38709C3.04583 7.38709 3.2365 7.46409 3.3905 7.61809C3.55183 7.77209 3.6325 7.96276 3.6325 8.19009C3.6325 8.41743 3.55183 8.61176 3.3905 8.77309C3.2365 8.92709 3.04583 9.00409 2.8185 9.00409C2.59116 9.00409 2.39683 8.92709 2.2355 8.77309C2.0815 8.61176 2.0045 8.41743 2.0045 8.19009C2.0045 7.96276 2.0815 7.77209 2.2355 7.61809Z" fill="#181818"/>
</svg>
