<svg xmlns="http://www.w3.org/2000/svg" width="20" height="20" viewBox="0 0 20 20">
  <defs>
    <style>
      .cls-1 {
        fill-rule: evenodd;
      }
    </style>
  </defs>
  <path id="wal" class="cls-1" d="M2.042,14.755c0,1.993.872,3.1,2.952,3.1h10.46c1.817,0,3.009-.725,3.009-2.972V8.806a2.693,2.693,0,0,0-1.072-2.555v-2.2a2.1,2.1,0,0,0-2.433-2.117c-2.313.328-8.917,1.191-9.785,1.305a3.368,3.368,0,0,0-3.137,3.4C2.036,7.779,2.042,12.762,2.042,14.755ZM4.7,7.406H15.693a0.919,0.919,0,0,1,1.149,1.021V15.21a0.928,0.928,0,0,1-1.087,1.024H4.77a0.97,0.97,0,0,1-1.113-1.151V8.427A0.931,0.931,0,0,1,4.7,7.406ZM5.164,4.881A1.668,1.668,0,0,0,3.8,5.916,2.226,2.226,0,0,1,4.588,5.8H15.764V4.045a0.446,0.446,0,0,0-.6-0.5C14.769,3.6,6.506,4.7,5.164,4.881Zm1.564,5.812a1.137,1.137,0,0,1,1.116,1.116,1.166,1.166,0,0,1-1.125,1.125A1.149,1.149,0,0,1,5.588,11.8,1.134,1.134,0,0,1,6.728,10.693Z"/>
</svg>
