<svg width="40" height="40" viewBox="0 0 40 40" fill="none" xmlns="http://www.w3.org/2000/svg">
<path d="M20 40C8.93606 40 0 31.0639 0 20C0 8.93606 8.93606 0 20 0C31.0639 0 40 8.93606 40 20C40 31.0639 31.0639 40 20 40ZM20 1.70259C9.87271 1.70259 1.70259 9.87271 1.70259 20C1.70259 30.1273 9.87271 38.2974 20 38.2974C30.1273 38.2974 38.2974 30.1273 38.2974 20C38.2974 9.87271 30.1273 1.70259 20 1.70259Z" fill="#E0E0E0"/>
<path d="M20.0002 31.9145C17.2769 31.9145 14.5533 31.1486 12.426 29.5315C12.0855 29.2762 12.0006 28.6803 12.2559 28.3401C12.5113 27.9996 13.1071 27.9147 13.4473 28.17C17.1069 30.9785 22.894 30.9785 26.6384 28.17C26.9789 27.9147 27.5745 27.9999 27.8298 28.3401C28.0851 28.6806 27.9999 29.2762 27.6597 29.5315C25.447 31.1486 22.7235 31.9145 20.0002 31.9145Z" fill="#E0E0E0"/>
<path d="M13.0211 19.4895C10.7232 19.4895 8.93604 17.617 8.93604 15.4044C8.93604 13.1918 10.8085 11.3193 13.0211 11.3193C15.2337 11.3193 17.1061 13.1918 17.1061 15.4044C17.1061 17.617 15.3189 19.4895 13.0211 19.4895ZM13.0211 12.9364C11.7445 12.9364 10.638 14.0429 10.638 15.3195C10.638 16.5961 11.7445 17.7025 13.0211 17.7025C14.2977 17.7025 15.4041 16.5961 15.4041 15.3195C15.4041 14.0426 14.3829 12.9364 13.0211 12.9364Z" fill="#E0E0E0"/>
<path d="M27.0636 19.4895C24.7657 19.4895 22.9785 17.617 22.9785 15.4044C22.9785 13.1918 24.8509 11.3193 27.0636 11.3193C29.2762 11.3193 31.1486 13.1918 31.1486 15.4044C31.1486 17.617 29.3614 19.4895 27.0636 19.4895ZM27.0636 12.9364C25.787 12.9364 24.6805 14.0429 24.6805 15.3195C24.6805 16.5961 25.787 17.7025 27.0636 17.7025C28.3402 17.7025 29.4466 16.5961 29.4466 15.3195C29.4466 14.0426 28.4254 12.9364 27.0636 12.9364Z" fill="#E0E0E0"/>
</svg>
