<svg width="20" height="20" viewBox="0 0 20 20" fill="none" xmlns="http://www.w3.org/2000/svg">
<path d="M16.8034 5.58428C14.41 1.99988 9.52348 0.934249 5.73392 3.16239C2.04409 5.39053 0.847389 10.2343 3.24079 13.8187L3.44024 14.1093L2.64244 17.0156L5.6342 16.2406L5.93337 16.4344C7.2298 17.1125 8.62595 17.5 10.0221 17.5C11.518 17.5 13.0139 17.1125 14.3103 16.3375C18.0001 14.0125 19.0971 9.26556 16.8034 5.58428ZM14.7092 13.0437C14.3103 13.625 13.8117 14.0125 13.1136 14.1093C12.7147 14.1093 12.2161 14.3031 10.2216 13.5281C8.52623 12.7531 7.13008 11.4937 6.13282 10.0406C5.53447 9.36244 5.2353 8.49056 5.13557 7.61867C5.13557 6.84367 5.43475 6.16554 5.93337 5.68116C6.13282 5.48741 6.33227 5.39053 6.53173 5.39053H7.03035C7.2298 5.39053 7.42925 5.39053 7.52898 5.77804C7.72843 6.26241 8.22705 7.42492 8.22705 7.5218C8.32678 7.61867 8.32678 7.81243 8.22705 7.9093C8.32678 8.10305 8.22705 8.29681 8.12733 8.39368C8.0276 8.49056 7.92788 8.68431 7.82815 8.78118C7.6287 8.87806 7.52898 9.07181 7.6287 9.26556C8.0276 9.84682 8.52623 10.4281 9.02486 10.9124C9.62321 11.3968 10.2216 11.7843 10.9196 12.075C11.1191 12.1718 11.3185 12.1718 11.4183 11.9781C11.518 11.7843 12.0166 11.3 12.2161 11.1062C12.4155 10.9124 12.5152 10.9124 12.7147 11.0093L14.3103 11.7843C14.5097 11.8812 14.7092 11.9781 14.8089 12.075C14.9086 12.3656 14.9086 12.7531 14.7092 13.0437Z" fill="white"/>
</svg>
