<svg width="40" height="33" viewBox="0 0 40 33" fill="none" xmlns="http://www.w3.org/2000/svg">
<path d="M40 0L40 6.94824L33.3333 6.94824L33.3333 -2.94041e-07L40 0ZM6.66668 -1.4702e-06L6.66668 6.94824L6.35981e-08 6.94824L3.64598e-07 -1.76424e-06L6.66668 -1.4702e-06ZM40 8.68082L40 15.6292L33.3333 15.6292L33.3333 8.69898L40 8.68082ZM31.6623 8.68082L31.6623 15.6292L25.0043 15.6292L25.0043 8.69898L31.6623 8.68082ZM15.0043 8.68082L15.0043 15.6292L8.33774 15.6292L8.33774 8.69898L15.0043 8.68082ZM6.66668 8.68082L6.66668 15.6292L-3.12463e-07 15.6292L-1.22443e-08 8.69898L6.66668 8.68082ZM31.6623 17.28L31.6623 24.2284L25.0043 24.2284L25.0043 17.28L31.6623 17.28ZM23.3333 17.28L23.3333 24.2284L16.6667 24.2284L16.6667 17.28L23.3333 17.28ZM15.0043 17.28L15.0043 24.2284L8.33774 24.2284L8.33774 17.28L15.0043 17.28ZM23.3333 26.0516L23.3333 33L16.6667 33L16.6667 26.0516L23.3333 26.0516Z" fill="url(#paint0_linear_649_146)"/>
<defs>
<linearGradient id="paint0_linear_649_146" x1="11.4" y1="-26.895" x2="66.0573" y2="15.527" gradientUnits="userSpaceOnUse">
<stop stop-color="#EF711D"/>
<stop offset="1" stop-color="#FE9E34"/>
</linearGradient>
</defs>
</svg>
