<svg width="32" height="32" viewBox="0 0 32 32" fill="none" xmlns="http://www.w3.org/2000/svg">
<path fill-rule="evenodd" clip-rule="evenodd" d="M17.8838 32H14.1102V28.1828H17.8838V32ZM17.8838 27.2332H14.1102V23.4223H17.8838V27.2332ZM14.1102 22.4726H17.8838V18.6617H14.1102V22.4726ZM32 17.9022H28.2264V14.0913H32V17.9022ZM9.43398 17.9022H13.2076V14.0913H9.43398V17.9022ZM27.2797 17.9022H23.5061V14.0913H27.2797V17.9022ZM4.71981 17.9022H8.49341V14.0913H4.71981V17.9022ZM22.5723 17.9022H18.7924V14.0913H22.5723V17.9022ZM0 17.9022H3.77987V14.0913H0V17.9022ZM17.8838 13.3379H14.1102V9.52066H17.8838V13.3379ZM14.1102 8.57113H17.8838V4.76022H14.1102V8.57113ZM17.8838 3.81099H14.1102V7.62939e-05H17.8838V3.81099Z" fill="#FE9E34"/>
</svg>
