<svg xmlns="http://www.w3.org/2000/svg" width="20" height="20" viewBox="0 0 20 20">
  <defs>
    <style>
      .cls-1 {
        fill-rule: evenodd;
      }
    </style>
  </defs>
  <path id="gr" class="cls-1" d="M3.967,15.308h13c1.06,0,1.105,1.722.063,1.722H3.319a0.929,0.929,0,0,1-1.1-1.137c0-.791.021-10.095,0.021-11.233a0.87,0.87,0,0,1,1.74.015V10.51S6.434,8.447,6.836,8.09a1.017,1.017,0,0,1,1.693,0c0.435,0.436,2.278,2.293,2.278,2.293s4.757-4.191,5.516-4.854,2.025,0.51,1.218,1.236-5.438,4.8-6.092,5.361a0.894,0.894,0,0,1-1.379-.024C9.4,11.426,7.66,9.642,7.66,9.642l-3.7,3.1Z"/>
</svg>
