<svg width="49" height="40" viewBox="0 0 49 40" fill="none" xmlns="http://www.w3.org/2000/svg">
<g clip-path="url(#clip0_288_4574)">
<path d="M24.3362 15.2989C20.1595 15.2989 16.8184 11.9128 16.8184 7.67984C16.8184 3.44691 20.1595 0.060791 24.3362 0.060791C28.5128 0.060791 31.854 3.44691 31.854 7.67984C31.854 11.9124 28.5125 15.2989 24.3362 15.2989ZM24.3362 2.07077C21.3083 2.07077 18.9065 4.50451 18.9065 7.57354C18.9065 10.6422 21.3079 13.0763 24.3362 13.0763C27.3641 13.0763 29.7658 10.6426 29.7658 7.57354C29.7655 4.50487 27.3641 2.07077 24.3362 2.07077Z" fill="#E0E0E0"/>
<path d="M9.5092 18.2612C6.58548 18.2612 4.18408 15.8274 4.18408 12.8644C4.18408 9.90127 6.58548 7.46753 9.5092 7.46753C12.4329 7.46753 14.8343 9.90127 14.8343 12.8644C14.8343 15.8274 12.4329 18.2612 9.5092 18.2612ZM9.5092 9.58417C7.73428 9.58417 6.27224 11.0655 6.27224 12.8647C6.27224 14.6635 7.73392 16.1453 9.5092 16.1453C11.2841 16.1453 12.7461 14.6639 12.7461 12.8647C12.7461 11.0655 11.2841 9.58417 9.5092 9.58417Z" fill="#E0E0E0"/>
<path d="M39.5805 18.2612C36.6568 18.2612 34.2554 15.8274 34.2554 12.8644C34.2554 9.90127 36.6568 7.46753 39.5805 7.46753C42.5042 7.46753 44.9056 9.90127 44.9056 12.8644C44.9056 15.8274 42.6084 18.2612 39.5805 18.2612ZM39.5805 9.58417C37.8056 9.58417 36.3435 11.0655 36.3435 12.8647C36.3435 14.6635 37.8052 16.1453 39.5805 16.1453C41.3554 16.1453 42.8174 14.6639 42.8174 12.8647C42.8174 11.0655 41.4599 9.58417 39.5805 9.58417Z" fill="#E0E0E0"/>
<path d="M37.179 39.9548H11.597C10.9705 39.9548 10.5527 39.5314 10.5527 38.8964L10.5531 25.7753C10.5531 20.8019 14.5207 16.7805 19.4284 16.7805H29.3474C34.2548 16.7805 38.2227 20.8016 38.2227 25.7753V38.7912C38.2224 39.4261 37.7004 39.9551 37.1785 39.9551L37.179 39.9548ZM12.6414 37.8385H36.0299V25.775C36.0299 21.9655 33.002 18.8968 29.2431 18.8968H19.324C15.5651 18.8968 12.5373 21.9655 12.5373 25.775L12.5369 37.8385H12.6414Z" fill="#E0E0E0"/>
<path d="M48.0378 35.5101H37.179C36.5526 35.5101 36.1348 35.0867 36.1348 34.4518V25.8803C36.1348 24.293 35.6128 22.7057 34.5686 21.4359C34.3599 21.1184 34.2553 20.801 34.3599 20.3776C34.4644 20.0601 34.7776 19.7426 35.0909 19.6367C35.5087 19.5308 35.9261 19.5308 36.3438 19.5308H42.8174C46.2631 19.5308 48.9777 22.3879 48.9777 25.774V34.3455C49.0822 34.9811 48.6645 35.5101 48.038 35.5101H48.0378ZM38.2226 33.3938H46.9934V25.8807C46.9934 23.5525 45.1139 21.7537 42.9212 21.7537H37.1783C37.8048 23.0236 38.2226 24.5049 38.2226 25.8807V33.3938Z" fill="#E0E0E0"/>
<path d="M11.5971 35.5102H1.05158C0.425099 35.5102 0.00732422 35.0868 0.00732422 34.4519V25.8805C0.00732422 22.3884 2.8265 19.6372 6.16763 19.6372H12.6412C12.9544 19.6372 13.2677 19.6372 13.5809 19.7431C13.9987 19.8491 14.3119 20.0606 14.4161 20.3781C14.5206 20.6955 14.5206 21.1189 14.2074 21.4364C13.1631 22.7062 12.5366 24.2935 12.5366 25.8808V34.4523C12.6415 34.9812 12.2238 35.5102 11.5973 35.5102H11.5971ZM2.09602 33.3939H10.5536V25.8808C10.5536 24.3995 10.8668 23.0237 11.5978 21.7539L6.16817 21.7535C3.87094 21.7535 2.09602 23.6583 2.09602 25.8805V33.3939Z" fill="#E0E0E0"/>
</g>
<defs>
<clipPath id="clip0_288_4574">
<rect width="49" height="40" fill="white"/>
</clipPath>
</defs>
</svg>
