<svg width="162" height="40" viewBox="0 0 162 40" fill="none" xmlns="http://www.w3.org/2000/svg">
<path fill-rule="evenodd" clip-rule="evenodd" d="M50.9297 4H54.5958V7.2745H50.9297V4ZM50.9297 8.09471H54.5958V11.3692H50.9297V8.09471ZM54.5958 12.1892H50.9297V15.4637H54.5958V12.1892ZM50.9297 16.284H54.5958V19.5671H50.9297V16.284ZM54.5958 20.3854H50.9297V23.6599H54.5958V20.3854ZM50.9297 24.48H54.5958V27.7545H50.9297V24.48ZM54.5958 28.5727H50.9297V31.8472H54.5958V28.5727ZM50.9297 32.7255H54.5958V36H50.9297V32.7255Z" fill="#FE9E34"/>
<path fill-rule="evenodd" clip-rule="evenodd" d="M63.4065 11.0785V8.30566H66.5149V11.0829L63.4065 11.0785ZM63.4065 14.549V11.7739H66.5149V14.549H63.4065ZM63.4065 18.0215V15.2443H66.5149V18.0215H63.4065ZM63.4065 21.4984V18.7147H66.5149V21.4984H63.4065ZM63.4065 24.9688V22.1916H66.5149V24.9688H63.4065ZM63.4065 28.4392V25.662H66.5149V28.4392H63.4065ZM63.4065 31.9096V29.1346H66.5149V31.9096H63.4065ZM67.2915 18.0215V15.2443H70.3999V18.0215H67.2915ZM67.2915 31.9096V29.1346H70.3999V31.9096H67.2915ZM71.1764 18.0215V15.2443H74.2848V18.0215H71.1764ZM71.1764 31.9096V29.1346H74.2848V31.9096H71.1764ZM75.0657 18.0215V15.2443H78.1762V18.0215H75.0657ZM75.0657 31.9096V29.1346H78.1762V31.9096H75.0657ZM78.9592 21.4984V18.7147H82.0676V21.4984H78.9592ZM78.9592 24.9688V22.1916H82.0676V24.9688H78.9592ZM78.9592 28.4392V25.662H82.0676V28.4392H78.9592ZM86.719 21.4984V18.7147H89.8274V21.4984H86.719ZM86.719 24.9688V22.1916H89.8274V24.9688H86.719ZM86.719 28.4392V25.662H89.8274V28.4392H86.719ZM90.6039 18.0215V15.2443H93.7123V18.0215H90.6039ZM90.6039 31.9096V29.1346H93.7123V31.9096H90.6039ZM94.4889 18.0215V15.2443H97.5909V18.0215H94.4889ZM94.4889 31.9096V29.1346H97.5909V31.9096H94.4889ZM98.376 18.0215V15.2443H101.491V18.0215H98.376ZM98.376 31.9096V29.1346H101.491V31.9096H98.376ZM102.267 21.4984V18.7147H105.376V21.4984H102.267ZM102.267 24.9688V22.1916H105.376V24.9688H102.267ZM102.267 28.4392V25.662H105.376V28.4392H102.267ZM110.031 15.2443V18.0215H113.14V15.2443H110.031ZM113.916 15.2443V18.0215H117.025V15.2443H113.916ZM117.804 8.30568V11.0786L120.912 11.0829V8.30568H117.804ZM117.804 11.7739V14.549H120.912V11.7739H117.804ZM117.804 15.2443V18.0215H120.912V15.2443H117.804ZM117.804 18.7148V21.4984H120.912V18.7148H117.804ZM117.804 22.1916V24.9688H120.912V22.1916H117.804ZM117.804 25.662V28.4392H120.912V25.662H117.804ZM121.689 15.2443V18.0215H124.803V15.2443H121.689ZM121.689 29.1346V31.9096H124.803V29.1346H121.689ZM125.58 15.2443V18.0215H128.695V15.2443H125.58ZM125.58 29.1346V31.9096H128.695V29.1346H125.58ZM133.346 18.0215V15.2443H136.454V18.0215H133.346ZM133.346 28.4392V25.662H136.454V28.4392H133.346ZM137.231 18.0215V15.2443H140.339V18.0215H137.231ZM137.231 24.9688V22.1916H140.339V24.9688H137.231ZM137.231 31.9096V29.1346H140.339V31.9096H137.231ZM141.116 18.0215V15.2443H144.224V18.0215H141.116ZM141.116 24.9688V22.1916H144.224V24.9688H141.116ZM141.116 31.9096V29.1346H144.224V31.9096H141.116ZM145.001 18.0215V15.2443H148.116V18.0215H145.001ZM145.001 24.9688V22.1916H148.116V24.9688H145.001ZM145.001 31.9096V29.1346H148.116V31.9096H145.001ZM148.892 21.4984V18.7147H152.001V21.4984H148.892ZM148.892 24.9688V22.1916H152.001V24.9688H148.892ZM148.892 28.4392V25.662H152.001V28.4392H148.892ZM148.892 31.9096V29.1346H152.001V31.9096H148.892ZM0 18.0215V15.2443H3.10841V18.0215H0ZM0 31.9096V29.1345H3.10841V31.9096H0ZM3.88497 18.0215V15.2443H6.99338V18.0215H3.88497ZM3.88497 28.4392V25.662H6.99338V28.4392H3.88497ZM3.88497 31.9096V29.1345H6.99338V31.9096H3.88497ZM7.77209 18.0215V15.2443H10.8805V18.0215H7.77209ZM7.77209 24.9688V22.1916H10.8805V24.9688H7.77209ZM7.77209 31.9096V29.1345H10.8805V31.9096H7.77209ZM11.6571 18.0215V15.2443H14.7826V18.0215H11.6571ZM11.6571 21.4983V18.7147H14.7826V21.4983H11.6571ZM11.6571 31.9096V29.1345H14.7826V31.9096H11.6571ZM15.5485 18.0215V15.2443H18.6569V18.0215H15.5485ZM15.5485 31.9096V29.1345H18.6569V31.9096H15.5485ZM23.3105 18.0215V15.2443H26.419V18.0215H23.3105ZM23.3105 28.4392V25.662H26.419V28.4392H23.3105ZM27.1977 18.0215V15.2443H30.3039V18.0215H27.1977ZM27.1977 24.9688V22.1916H30.3039V24.9688H27.1977ZM27.1977 31.9096V29.1345H30.3039V31.9096H27.1977ZM31.0848 18.0215V15.2443H34.1932V18.0215H31.0848ZM31.0848 24.9688V22.1916H34.1932V24.9688H31.0848ZM31.0848 31.9096V29.1345H34.1932V31.9096H31.0848ZM34.9698 18.0215V15.2443H38.0846V18.0215H34.9698ZM34.9698 24.9688V22.1916H38.0846V24.9688H34.9698ZM34.9698 31.9096V29.1345H38.0846V31.9096H34.9698ZM38.8612 21.4983V18.7147H41.9696V21.4983H38.8612ZM38.8612 24.9688V22.1916H41.9696V24.9688H38.8612ZM38.8612 28.4392V25.662H41.9696V28.4392H38.8612ZM38.8612 31.9096V29.1345H41.9696V31.9096H38.8612Z" fill="white"/>
</svg>
