<svg width="110" height="228" viewBox="0 0 110 228" fill="none" xmlns="http://www.w3.org/2000/svg">
<path d="M109.594 227.042L109.594 208.848L91.3896 208.848L91.3896 227.042L109.594 227.042ZM18.6122 227.042L18.6122 208.848L0.408026 208.848L0.408027 227.042L18.6122 227.042ZM109.594 204.318L109.594 186.128L91.3896 186.128L91.3896 204.318L109.594 204.318ZM86.8575 204.318L86.8575 186.128L68.6533 186.128L68.6533 204.318L86.8575 204.318ZM41.3475 204.318L41.3475 186.128L23.1443 186.128L23.1443 204.318L41.3475 204.318ZM18.6122 204.318L18.6122 186.128L0.408025 186.128L0.408026 204.318L18.6122 204.318ZM86.8575 181.858L86.8575 163.704L68.6533 163.704L68.6533 181.858L86.8575 181.858ZM64.1213 181.858L64.1213 163.704L45.918 163.704L45.918 181.858L64.1213 181.858ZM41.3475 181.858L41.3475 163.704L23.1443 163.704L23.1443 181.858L41.3475 181.858ZM64.1213 158.912L64.1213 140.721L45.918 140.721L45.918 158.875L64.1213 158.912Z" fill="#FE9E34"/>
<path d="M109.594 156.931L109.594 138.777L91.3896 138.777L91.3896 156.931L109.594 156.931ZM18.6122 156.931L18.6122 138.777L0.408026 138.777L0.408027 156.931L18.6122 156.931ZM109.594 134.208L109.594 116.017L91.3896 116.017L91.3896 134.208L109.594 134.208ZM86.8575 134.208L86.8575 116.017L68.6533 116.017L68.6533 134.208L86.8575 134.208ZM41.3475 134.208L41.3475 116.017L23.1443 116.017L23.1443 134.208L41.3475 134.208ZM18.6122 134.208L18.6122 116.017L0.408025 116.017L0.408026 134.208L18.6122 134.208ZM86.8575 111.748L86.8575 93.557L68.6533 93.557L68.6533 111.748L86.8575 111.748ZM64.1213 111.748L64.1213 93.557L45.918 93.557L45.918 111.748L64.1213 111.748ZM41.3475 111.748L41.3475 93.557L23.1443 93.557L23.1443 111.748L41.3475 111.748ZM64.1213 88.7644L64.1213 70.6105L45.918 70.6105L45.918 88.7644L64.1213 88.7644Z" fill="#4F4F4F"/>
<path d="M109.594 86.821L109.594 68.6671L91.3896 68.6671L91.3896 86.821L109.594 86.821ZM18.6122 86.821L18.6122 68.6671L0.408026 68.6671L0.408027 86.821L18.6122 86.821ZM109.594 64.0975L109.594 45.907L91.3896 45.907L91.3896 64.0975L109.594 64.0975ZM86.8575 64.0975L86.8575 45.907L68.6533 45.907L68.6533 64.0975L86.8575 64.0975ZM41.3475 64.0975L41.3475 45.907L23.1443 45.907L23.1443 64.0975L41.3475 64.0975ZM18.6122 64.0975L18.6122 45.907L0.408025 45.907L0.408026 64.0975L18.6122 64.0975ZM86.8575 41.6372L86.8575 23.4466L68.6533 23.4466L68.6533 41.6372L86.8575 41.6372ZM64.1213 41.6372L64.1213 23.4466L45.918 23.4466L45.918 41.6372L64.1213 41.6372ZM41.3475 41.6372L41.3475 23.4466L23.1443 23.4466L23.1443 41.6372L41.3475 41.6372ZM64.1213 18.6541L64.1213 0.500099L45.918 0.500099L45.918 18.6541L64.1213 18.6541Z" fill="#4F4F4F"/>
</svg>
