<svg width="64" height="64" viewBox="0 0 64 64" fill="none" xmlns="http://www.w3.org/2000/svg">
<g clip-path="url(#clip0_288_4646)">
<path d="M34.2945 64.0002C34.2938 64.0002 34.2945 64.0002 34.2939 64.0002C27.497 64.0002 18.8215 59.5464 11.6516 52.3768C6.52233 47.2494 2.74857 41.3547 1.02601 35.7784C-0.771111 29.9595 -0.137831 25.1307 2.81001 22.1826L5.20873 19.7858C5.73193 19.2568 6.43849 18.9624 7.19241 18.9624C7.94665 18.9624 8.65257 19.2568 9.18089 19.7906L16.521 27.1304C17.0484 27.6517 17.3419 28.3573 17.3419 29.1109C17.3419 29.8642 17.0494 30.5701 16.5195 31.0974L14.1252 33.4955C13.419 34.2011 13.451 35.7867 14.2097 37.7387C15.1063 40.0437 16.8634 42.5765 19.1588 44.8709C22.474 48.1874 26.417 50.4152 28.9706 50.4142C29.6705 50.4142 30.1966 50.2434 30.5338 49.9054L32.9306 47.507C33.4622 46.9781 34.1668 46.6882 34.9178 46.6882C35.667 46.6882 36.3706 46.9778 36.8996 47.5038L44.2446 54.8523C44.7729 55.3794 45.0647 56.0853 45.0647 56.8379C45.0647 57.5899 44.7732 58.2946 44.2433 58.8235L41.8459 61.22C40.027 63.0386 37.4161 64.0002 34.2945 64.0002ZM7.19241 21.1864C7.03689 21.1864 6.89225 21.2462 6.78505 21.3544L4.38249 23.756C2.04649 26.092 1.60937 30.1291 3.15113 35.1221C4.76841 40.3586 8.34569 45.9282 13.2241 50.8046C19.9921 57.5717 28.0657 61.7765 34.2939 61.7765C36.8494 61.7765 38.8609 61.0603 40.2734 59.6482L42.6721 57.2498C42.7815 57.1406 42.8407 56.9947 42.8407 56.8386C42.8407 56.6811 42.7812 56.5346 42.6734 56.4274L35.3291 49.0789C35.1131 48.8645 34.7188 48.8645 34.5012 49.0818L32.1076 51.4786C31.3482 52.2382 30.2638 52.6389 28.9716 52.6389H28.9706C25.769 52.6398 21.4071 50.2651 17.5867 46.444C15.0791 43.9371 13.1431 41.131 12.1374 38.5451C11.0164 35.6629 11.1639 33.3118 12.5531 31.9234L14.9489 29.5246C15.059 29.4146 15.1188 29.269 15.1188 29.1115C15.1188 28.9563 15.0599 28.8123 14.9537 28.707L7.60457 21.3592C7.49257 21.2462 7.34761 21.1864 7.19241 21.1864Z" fill="#FE9E34"/>
<mask id="path-2-inside-1_288_4646" fill="white">
<path d="M22.2234 41.7929C21.9714 42.0449 21.5405 41.8664 21.5405 41.5101V21.2179C21.5405 9.51968 31.0589 0.00096 42.7588 0C54.4586 0 63.9767 9.51936 63.9767 21.2189C63.9767 32.92 54.4586 42.4381 42.7588 42.4381C37.1383 42.4381 31.7421 40.192 27.776 36.2394L22.2234 41.7929ZM27.6911 33.1803C27.7722 33.0992 27.9048 33.1027 27.9814 33.1881L28.624 33.9037C32.2247 37.9142 37.3773 40.2147 42.7588 40.2147C53.232 40.2147 61.7527 31.6931 61.7527 21.2192C61.7527 10.7453 53.232 2.224 42.7588 2.224C32.2852 2.22496 23.7645 10.7462 23.7645 21.2179V37.1072L27.6911 33.1803Z"/>
<path d="M42.7588 33.9132C35.7591 33.9132 30.0647 28.2181 30.0647 21.2181C30.0647 14.2191 35.7591 8.52437 42.7588 8.52341C49.7584 8.52341 55.4535 14.2188 55.4535 21.2191C55.4535 28.2185 49.7584 33.9132 42.7588 33.9132Z"/>
</mask>
<path d="M42.7588 0L42.7588 -2L42.7586 -2L42.7588 0ZM27.776 36.2394L29.1879 34.8228L27.7735 33.4132L26.3617 34.8253L27.776 36.2394ZM28.624 33.9037L30.1123 32.5676L30.1121 32.5674L28.624 33.9037ZM42.7588 2.224L42.7588 0.224L42.7586 0.224L42.7588 2.224ZM23.7645 37.1072H21.7645V41.9359L25.1788 38.5214L23.7645 37.1072ZM27.9814 33.1881L29.4694 31.8517L29.4694 31.8517L27.9814 33.1881ZM27.6911 33.1803L26.2769 31.7661L26.2769 31.7661L27.6911 33.1803ZM22.2234 41.7929L20.8091 40.3788L20.8091 40.3788L22.2234 41.7929ZM42.7588 8.52341L42.7588 6.52341L42.7585 6.52341L42.7588 8.52341ZM23.5405 41.5101V21.2179H19.5405V41.5101H23.5405ZM23.5405 21.2179C23.5405 10.6243 32.1634 2.00087 42.7589 2L42.7586 -2C29.9544 -1.99895 19.5405 8.41502 19.5405 21.2179H23.5405ZM42.7588 2C53.3539 2 61.9767 10.6238 61.9767 21.2189H65.9767C65.9767 8.41493 55.5633 -2 42.7588 -2V2ZM61.9767 21.2189C61.9767 31.8155 53.354 40.4381 42.7588 40.4381V44.4381C55.5633 44.4381 65.9767 34.0245 65.9767 21.2189H61.9767ZM42.7588 40.4381C37.6704 40.4381 32.7811 38.4038 29.1879 34.8228L26.3642 37.656C30.7031 41.9802 36.6062 44.4381 42.7588 44.4381V40.4381ZM26.3617 34.8253L20.8091 40.3788L23.6377 43.207L29.1904 37.6535L26.3617 34.8253ZM26.4933 34.5244L27.136 35.24L30.1121 32.5674L29.4694 31.8517L26.4933 34.5244ZM27.1358 35.2398C31.1152 39.6722 36.8086 42.2147 42.7588 42.2147V38.2147C37.9461 38.2147 33.3342 36.1563 30.1123 32.5676L27.1358 35.2398ZM42.7588 42.2147C54.3368 42.2147 63.7527 32.7975 63.7527 21.2192H59.7527C59.7527 30.5887 52.1273 38.2147 42.7588 38.2147V42.2147ZM63.7527 21.2192C63.7527 9.64084 54.3367 0.224 42.7588 0.224V4.224C52.1273 4.224 59.7527 11.8497 59.7527 21.2192H63.7527ZM42.7586 0.224C31.1806 0.225061 21.7645 9.64159 21.7645 21.2179H25.7645C25.7645 11.8509 33.3897 4.22486 42.759 4.224L42.7586 0.224ZM21.7645 21.2179V37.1072H25.7645V21.2179H21.7645ZM25.1788 38.5214L29.1054 34.5944L26.2769 31.7661L22.3503 35.693L25.1788 38.5214ZM29.4694 31.8517C28.6266 30.9132 27.1688 30.8741 26.2769 31.7661L29.1054 34.5944C28.3757 35.3242 27.183 35.2923 26.4934 34.5244L29.4694 31.8517ZM19.5405 41.5101C19.5405 43.6483 22.1258 44.7191 23.6377 43.207L20.8091 40.3788C21.817 39.3707 23.5405 40.0846 23.5405 41.5101H19.5405ZM42.7588 31.9132C36.8638 31.9132 32.0647 27.1137 32.0647 21.2181H28.0647C28.0647 29.3225 34.6544 35.9132 42.7588 35.9132V31.9132ZM32.0647 21.2181C32.0647 15.3237 36.8637 10.5242 42.759 10.5234L42.7585 6.52341C34.6545 6.52453 28.0647 13.1145 28.0647 21.2181H32.0647ZM42.7588 10.5234C48.6537 10.5234 53.4535 15.3232 53.4535 21.2191H57.4535C57.4535 13.1143 50.8631 6.52341 42.7588 6.52341V10.5234ZM53.4535 21.2191C53.4535 27.1138 48.654 31.9132 42.7588 31.9132V35.9132C50.8629 35.9132 57.4535 29.3231 57.4535 21.2191H53.4535Z" fill="#777777" mask="url(#path-2-inside-1_288_4646)"/>
<path d="M43.0707 15.5557H42.4467C42.0049 15.5557 41.6467 15.9138 41.6467 16.3557V26.0811C41.6467 26.5229 42.0049 26.8811 42.4467 26.8811H43.0707C43.5126 26.8811 43.8707 26.5229 43.8707 26.0811V16.3557C43.8707 15.9138 43.5126 15.5557 43.0707 15.5557Z" fill="#FE9E34"/>
<path d="M47.6208 20.1067H37.8967C37.4549 20.1067 37.0967 20.4649 37.0967 20.9067V21.5307C37.0967 21.9725 37.4549 22.3307 37.8967 22.3307H47.6208C48.0627 22.3307 48.4208 21.9725 48.4208 21.5307V20.9067C48.4208 20.4649 48.0627 20.1067 47.6208 20.1067Z" fill="#FE9E34"/>
</g>
<defs>
<clipPath id="clip0_288_4646">
<rect width="64" height="64" fill="white"/>
</clipPath>
</defs>
</svg>
