<svg width="330" height="154" viewBox="0 0 330 154" fill="none" xmlns="http://www.w3.org/2000/svg">
<path d="M0.0566406 153.282L25.4944 153.282L25.4944 127.845L0.0566428 127.845L0.0566406 153.282ZM0.0566517 26.1544L25.4944 26.1544L25.4944 0.717907L0.056654 0.717905L0.0566517 26.1544ZM31.827 153.282L57.2596 153.282L57.2596 127.845L31.827 127.845L31.827 153.282ZM31.827 121.513L57.2596 121.513L57.2596 96.0762L31.827 96.0762L31.827 121.513ZM31.827 57.9222L57.2596 57.9222L57.2596 32.487L31.827 32.487L31.827 57.9222ZM31.827 26.1544L57.2596 26.1544L57.2596 0.71791L31.827 0.717907L31.827 26.1544ZM63.2293 121.513L88.6109 121.513L88.6109 96.0762L63.2293 96.0762L63.2293 121.513ZM63.2293 89.7436L88.6109 89.7436L88.6109 64.3084L63.2293 64.3084L63.2293 89.7436ZM63.2293 57.9222L88.6109 57.9222L88.6109 32.487L63.2293 32.487L63.2293 57.9222ZM95.3114 89.7436L120.744 89.7436L120.744 64.3084L95.3626 64.3084L95.3114 89.7436Z" fill="#4F4F4F"/>
<path d="M104.685 153.282L130.066 153.282L130.066 127.845L104.685 127.845L104.685 153.282ZM104.685 26.1544L130.066 26.1544L130.066 0.717907L104.685 0.717905L104.685 26.1544ZM136.455 153.282L161.888 153.282L161.888 127.845L136.455 127.845L136.455 153.282ZM136.455 121.513L161.888 121.513L161.888 96.0762L136.455 96.0762L136.455 121.513ZM136.455 57.9222L161.888 57.9222L161.888 32.487L136.455 32.487L136.455 57.9222ZM136.455 26.1544L161.888 26.1544L161.888 0.71791L136.455 0.717907L136.455 26.1544ZM167.857 121.513L193.29 121.513L193.29 96.0762L167.857 96.0762L167.857 121.513ZM167.857 89.7436L193.29 89.7436L193.29 64.3084L167.857 64.3084L167.857 89.7436ZM167.857 57.9222L193.29 57.9222L193.29 32.487L167.857 32.487L167.857 57.9222ZM199.99 89.7436L225.372 89.7436L225.372 64.3084L199.99 64.3084L199.99 89.7436Z" fill="#4F4F4F"/>
<path d="M209.313 153.282L234.695 153.282L234.695 127.845L209.313 127.845L209.313 153.282ZM209.313 26.1544L234.695 26.1544L234.695 0.717907L209.313 0.717905L209.313 26.1544ZM241.083 153.282L266.516 153.282L266.516 127.845L241.083 127.845L241.083 153.282ZM241.083 121.513L266.516 121.513L266.516 96.0762L241.083 96.0762L241.083 121.513ZM241.083 57.9222L266.516 57.9222L266.516 32.487L241.083 32.487L241.083 57.9222ZM241.083 26.1544L266.516 26.1544L266.516 0.71791L241.083 0.717907L241.083 26.1544ZM272.486 121.513L297.918 121.513L297.918 96.0762L272.486 96.0762L272.486 121.513ZM272.486 89.7436L297.918 89.7436L297.918 64.3084L272.486 64.3084L272.486 89.7436ZM272.486 57.9222L297.918 57.9222L297.918 32.487L272.486 32.487L272.486 57.9222ZM304.619 89.7436L330 89.7436L330 64.3084L304.619 64.3084L304.619 89.7436Z" fill="#4F4F4F"/>
</svg>
