<svg xmlns="http://www.w3.org/2000/svg" xmlns:xlink="http://www.w3.org/1999/xlink"><symbol id="icon-phone" viewBox="0 0 20 20"><path d="M5.174 18c-.513-.373-1.035-.738-1.52-1.147-.53-.453-1.063-.906-1.46-1.491-.253-.369-.25-.726-.04-1.11.336-.614.79-1.135 1.3-1.613.476-.444.986-.85 1.596-1.102.236-.1.481-.172.742-.148.2.02.365.108.505.252.253.26.462.55.662.85.149.225.285.461.446.678.385.529.814.665 1.448.493.441-.12.826-.349 1.171-.634 1.1-.902 2.103-1.9 3.001-2.998.321-.393.582-.826.67-1.34.088-.509-.04-.934-.477-1.247-.357-.252-.742-.46-1.091-.725a7.75 7.75 0 01-.446-.37c-.292-.256-.353-.572-.264-.933.12-.497.38-.922.686-1.32a7.464 7.464 0 011.837-1.747c.152-.1.317-.18.481-.261.317-.152.602-.092.887.084.401.249.734.578 1.051.926a18.648 18.648 0 011.545 1.961c.028.044.064.08.096.124v.28c-.008.025-.02.049-.02.073-.056.593-.209 1.167-.397 1.728-.558 1.632-1.352 3.14-2.315 4.567-.722 1.074-1.565 2.036-2.6 2.826a20.348 20.348 0 01-3.795 2.277c-.798.37-1.617.686-2.475.895-.31.076-.622.112-.935.168h-.28L5.173 18z"/></symbol><symbol id="icon-plus" viewBox="0 0 32 32"><path fill-rule="evenodd" clip-rule="evenodd" d="M17.884 32H14.11v-3.817h3.774V32zm0-4.767H14.11v-3.81h3.774v3.81zm-3.774-4.76h3.774v-3.811H14.11v3.81zM32 17.903h-3.774V14.09H32v3.811zm-22.566 0h3.774V14.09H9.434v3.811zm17.846 0h-3.774V14.09h3.774v3.811zm-22.56 0h3.773V14.09H4.72v3.811zm17.852 0h-3.78V14.09h3.78v3.811zM0 17.902h3.78V14.09H0v3.811zm17.884-4.565H14.11V9.52h3.774v3.817zM14.11 8.57h3.774v-3.81H14.11v3.81zm3.774-4.76H14.11V.001h3.774v3.81z"/></symbol><symbol id="icon-tgm" viewBox="0 0 20 20"><path d="M17.354 5.183L14.94 16.215c-.182.779-.657.973-1.332.606l-3.68-2.627-1.774 1.654c-.197.19-.361.35-.74.35l.265-3.63 6.818-5.97c.296-.255-.064-.397-.46-.141l-8.43 5.142-3.629-1.1c-.79-.24-.804-.765.164-1.132L16.337 4.07c.657-.239 1.232.142 1.017 1.114z"/></symbol><symbol id="icon-wapp" viewBox="0 0 20 20"><path d="M16.803 5.584C14.41 2 9.523.934 5.733 3.162 2.045 5.391.848 10.234 3.242 13.82l.2.29-.799 2.907 2.992-.775.3.193c1.296.678 2.692 1.066 4.088 1.066a8.373 8.373 0 004.288-1.163c3.69-2.325 4.787-7.071 2.493-10.753zm-2.094 7.46c-.399.581-.897.968-1.595 1.065-.4 0-.898.194-2.892-.58-1.696-.776-3.092-2.035-4.09-3.488-.598-.679-.897-1.55-.996-2.422 0-.775.299-1.453.797-1.938.2-.194.4-.29.599-.29h.498c.2 0 .4 0 .499.387.2.484.698 1.647.698 1.744.1.097.1.29 0 .387.1.194 0 .388-.1.485-.1.097-.2.29-.299.387-.2.097-.299.29-.2.485.4.58.898 1.162 1.397 1.646.598.485 1.197.872 1.895 1.163.2.097.399.097.498-.097.1-.194.599-.678.798-.872.2-.194.3-.194.499-.097l1.595.775c.2.097.4.194.499.291.1.29.1.678-.1.969z"/></symbol> <view id="icon-phone-view-orange" viewBox="0 0 20 20"/><view id="icon-phone-view-dark" viewBox="0 30 20 20"/><view id="icon-phone-view-white" viewBox="0 60 20 20"/><view id="icon-plus-view-orange" viewBox="0 90 32 32"/><view id="icon-plus-view-dark" viewBox="0 132 32 32"/><view id="icon-plus-view-white" viewBox="0 174 32 32"/><view id="icon-tgm-view-orange" viewBox="0 216 20 20"/><view id="icon-tgm-view-dark" viewBox="0 246 20 20"/><view id="icon-tgm-view-white" viewBox="0 276 20 20"/><view id="icon-wapp-view-orange" viewBox="0 306 20 20"/><view id="icon-wapp-view-dark" viewBox="0 336 20 20"/><view id="icon-wapp-view-white" viewBox="0 366 20 20"/> <use xlink:href="#icon-phone" x="0" y="0" width="20" height="20" style="fill:#fe9e34"/><use xlink:href="#icon-phone" x="0" y="30" width="20" height="20" style="fill:#828282"/><use xlink:href="#icon-phone" x="0" y="60" width="20" height="20" style="fill:#ffffff"/><use xlink:href="#icon-plus" x="0" y="90" width="32" height="32" style="fill:#fe9e34"/><use xlink:href="#icon-plus" x="0" y="132" width="32" height="32" style="fill:#828282"/><use xlink:href="#icon-plus" x="0" y="174" width="32" height="32" style="fill:#ffffff"/><use xlink:href="#icon-tgm" x="0" y="216" width="20" height="20" style="fill:#fe9e34"/><use xlink:href="#icon-tgm" x="0" y="246" width="20" height="20" style="fill:#828282"/><use xlink:href="#icon-tgm" x="0" y="276" width="20" height="20" style="fill:#ffffff"/><use xlink:href="#icon-wapp" x="0" y="306" width="20" height="20" style="fill:#fe9e34"/><use xlink:href="#icon-wapp" x="0" y="336" width="20" height="20" style="fill:#828282"/><use xlink:href="#icon-wapp" x="0" y="366" width="20" height="20" style="fill:#ffffff"/></svg>