<svg xmlns="http://www.w3.org/2000/svg" xmlns:xlink="http://www.w3.org/1999/xlink"><symbol id="icon-bots" viewBox="0 0 49 40"><g clip-path="url(#clip0_288_4574)"><path d="M24.336 15.299c-4.176 0-7.518-3.386-7.518-7.62 0-4.232 3.341-7.618 7.518-7.618s7.518 3.386 7.518 7.619c0 4.232-3.341 7.619-7.518 7.619zm0-13.228c-3.028 0-5.43 2.434-5.43 5.503 0 3.068 2.402 5.502 5.43 5.502 3.028 0 5.43-2.433 5.43-5.502 0-3.07-2.402-5.503-5.43-5.503zM9.51 18.261c-2.925 0-5.326-2.434-5.326-5.397S6.585 7.468 9.51 7.468c2.924 0 5.325 2.433 5.325 5.396s-2.401 5.397-5.325 5.397zm0-8.677c-1.776 0-3.238 1.482-3.238 3.28 0 1.8 1.462 3.281 3.237 3.281 1.775 0 3.237-1.481 3.237-3.28 0-1.8-1.462-3.28-3.237-3.28zM39.58 18.261c-2.923 0-5.325-2.434-5.325-5.397s2.402-5.396 5.325-5.396c2.924 0 5.326 2.433 5.326 5.396s-2.298 5.397-5.325 5.397zm0-8.677c-1.774 0-3.236 1.482-3.236 3.28 0 1.8 1.461 3.281 3.236 3.281 1.775 0 3.237-1.481 3.237-3.28 0-1.8-1.357-3.28-3.236-3.28zM37.179 39.955H11.597c-.627 0-1.044-.424-1.044-1.059v-13.12c0-4.974 3.968-8.995 8.875-8.995h9.92c4.907 0 8.875 4.02 8.875 8.994v13.016c0 .635-.523 1.164-1.044 1.164zm-24.538-2.116H36.03V25.775c0-3.81-3.028-6.878-6.787-6.878h-9.919c-3.759 0-6.787 3.069-6.787 6.878v12.064h.104z"/><path d="M48.038 35.51H37.179c-.626 0-1.044-.423-1.044-1.058V25.88c0-1.587-.522-3.174-1.566-4.444-.21-.318-.314-.635-.21-1.058a1.27 1.27 0 01.732-.741c.418-.106.835-.106 1.253-.106h6.473c3.446 0 6.16 2.857 6.16 6.243v8.572c.105.635-.313 1.164-.939 1.164zm-9.815-2.116h8.77V25.88c0-2.329-1.88-4.127-4.072-4.127h-5.743c.627 1.27 1.045 2.75 1.045 4.127v7.513zM11.597 35.51H1.052c-.627 0-1.045-.423-1.045-1.058V25.88c0-3.493 2.82-6.244 6.16-6.244h6.474c.313 0 .627 0 .94.106.418.106.73.318.835.635.105.317.105.74-.209 1.058-1.044 1.27-1.67 2.858-1.67 4.445v8.571c.104.53-.313 1.058-.94 1.058zm-9.501-2.116h8.458V25.88c0-1.482.313-2.857 1.044-4.127h-5.43c-2.297 0-4.072 1.904-4.072 4.127v7.513z"/></g><defs><clipPath id="clip0_288_4574"><path d="M0 0h49v40H0z"/></clipPath></defs></symbol><symbol id="icon-close" viewBox="0 0 37 37"><path d="M1.12 35.77a3 3 0 010-4.243L31.527 1.12a3 3 0 114.243 4.243L5.364 35.77a3 3 0 01-4.243 0z"/><path d="M35.77 35.77a3 3 0 01-4.243 0L1.12 5.364a3 3 0 014.243-4.243l30.405 30.406a3 3 0 010 4.243z"/></symbol><symbol id="icon-down" viewBox="0 0 40 33"><path d="M40 0v6.948h-6.667V0H40zM6.667 0v6.948H0V0h6.667zM40 8.68v6.95h-6.667V8.698L40 8.681zm-8.338 0v6.95h-6.658V8.698l6.658-.018zm-16.658 0v6.95H8.338V8.698l6.666-.018zm-8.337 0v6.95H0V8.698l6.667-.018zm24.995 8.6v6.948h-6.658V17.28h6.658zm-8.329 0v6.948h-6.666V17.28h6.666zm-8.329 0v6.948H8.338V17.28h6.666zm8.33 8.772V33h-6.667v-6.948h6.666z"/><defs><linearGradient id="paint0_linear_649_146" x1="11.4" y1="-26.895" x2="66.057" y2="15.527" gradientUnits="userSpaceOnUse"><stop stop-color="#EF711D"/><stop offset="1" stop-color="#FE9E34"/></linearGradient></defs></symbol><symbol id="icon-glob" viewBox="0 0 40 40"><g clip-path="url(#clip0_288_4598)"><path d="M33.328 34.554a.773.773 0 01-.596-.255 18.297 18.297 0 00-12.75-5.186c-4.76 0-9.266 1.87-12.75 5.186-.34.34-.85.34-1.19 0-3.91-3.74-6.036-8.84-6.036-14.28 0-5.441 2.125-10.541 6.035-14.281.34-.34.85-.34 1.19 0a18.297 18.297 0 0012.75 5.185c4.76 0 9.266-1.87 12.751-5.185.34-.34.85-.34 1.19 0 3.91 3.825 6.035 8.84 6.035 14.28 0 5.44-2.125 10.54-6.035 14.28a.917.917 0 01-.594.256zM6.636 7.523c-3.23 3.4-4.93 7.82-4.93 12.495 0 4.676 1.785 9.095 4.93 12.496 3.655-3.315 8.33-5.1 13.346-5.1 4.93 0 9.605 1.785 13.346 5.1 3.23-3.4 4.93-7.82 4.93-12.496 0-4.675-1.785-9.095-4.93-12.495-3.656 3.315-8.33 5.1-13.346 5.1-4.93 0-9.605-1.87-13.346-5.1z"/><path d="M19.982 12.623c-5.185 0-10.2-2.04-13.94-5.695a.77.77 0 01-.255-.595c0-.255.085-.425.255-.595A19.969 19.969 0 0119.982.042c5.185 0 10.2 2.04 13.94 5.696.17.17.255.34.255.595a.772.772 0 01-.255.595 19.97 19.97 0 01-13.94 5.695zm-12.07-6.29c3.314 2.975 7.564 4.59 12.07 4.59 4.505 0 8.755-1.615 12.07-4.59-3.315-2.975-7.565-4.59-12.07-4.59s-8.756 1.615-12.07 4.59zM19.982 39.994c-5.185 0-10.2-2.04-13.94-5.695a.772.772 0 01-.255-.595c0-.255.085-.425.255-.595 3.74-3.656 8.67-5.696 13.94-5.696 5.185 0 10.2 2.04 13.94 5.696.17.17.255.34.255.595a.772.772 0 01-.255.595 19.969 19.969 0 01-13.94 5.695zm-12.07-6.29c3.314 2.975 7.564 4.59 12.07 4.59 4.505 0 8.755-1.615 12.07-4.59-3.315-2.975-7.564-4.59-12.07-4.59-4.505 0-8.756 1.615-12.07 4.59z"/><path d="M19.982 39.994c-5.44 0-9.69-8.755-9.69-19.976 0-11.22 4.25-19.976 9.69-19.976 5.44 0 9.69 8.756 9.69 19.976 0 11.22-4.25 19.976-9.69 19.976zm0-38.251c-4.335 0-7.99 8.33-7.99 18.275 0 9.946 3.654 18.276 7.99 18.276 4.335 0 7.99-8.33 7.99-18.276 0-9.945-3.655-18.275-7.99-18.275z"/><path d="M19.982 39.994c-.51 0-.85-.34-.85-.85V.893c0-.51.34-.85.85-.85s.85.34.85.85v38.251c0 .51-.34.85-.85.85z"/><path d="M39.107 20.869H.856c-.51 0-.85-.34-.85-.85s.34-.85.85-.85h38.251c.51 0 .85.34.85.85s-.34.85-.85.85z"/></g><defs><clipPath id="clip0_288_4598"><path d="M0 0h40v40H0z"/></clipPath></defs></symbol><symbol id="icon-graph" viewBox="0 0 20 20"><path d="M3.967 15.308h13c1.06 0 1.105 1.722.063 1.722H3.319a.929.929 0 01-1.1-1.137c0-.791.021-10.095.021-11.233a.87.87 0 011.74.015v5.835s2.454-2.063 2.856-2.42a1.017 1.017 0 011.693 0c.435.436 2.278 2.293 2.278 2.293s4.757-4.191 5.516-4.854 2.025.51 1.218 1.236-5.438 4.8-6.092 5.361a.894.894 0 01-1.379-.024c-.67-.676-2.41-2.46-2.41-2.46l-3.7 3.1z" fill-rule="evenodd"/></symbol><symbol id="icon-grow" viewBox="0 0 40 40"><path d="M39.108 30.105H.856c-.51 0-.85-.34-.85-.85V5.174c0-.51.34-.85.85-.85h38.252c.51 0 .85.34.85.85v24.08c0 .51-.34.85-.85.85zM1.707 28.404h36.551V6.026H1.706v22.378z"/><path d="M19.982 6.026c-.51 0-.85-.34-.85-.85V1.856c0-.51.34-.85.85-.85s.85.34.85.85v3.318c0 .511-.34.851-.85.851zM19.982 39.976c-.51 0-.85-.34-.85-.85v-9.87c0-.511.34-.852.85-.852s.85.34.85.851v9.785c0 .596-.34.936-.85.936zM6.806 39.976c-.17 0-.34 0-.424-.085-.425-.255-.51-.766-.255-1.191l6.035-9.87c.255-.425.765-.51 1.19-.255.425.255.51.765.255 1.19L7.572 39.55c-.17.256-.426.426-.766.426zM33.157 39.976c-.255 0-.595-.17-.765-.425l-6.035-9.87c-.255-.426-.085-.936.255-1.191.425-.256.935-.086 1.19.255l6.035 9.87c.255.425.085.935-.255 1.19-.17.17-.255.17-.425.17zM6.806 24.66a.919.919 0 01-.595-.255.823.823 0 010-1.191l6.8-7.232c.17-.17.425-.256.68-.256.255 0 .51.17.596.34l2.72 3.66 6.375-6.893c.17-.17.425-.255.68-.255.255 0 .51.17.68.34l2.72 3.744 5.185-6.551c.255-.34.85-.426 1.19-.17.34.255.425.85.17 1.19l-5.865 7.403c-.17.17-.425.34-.68.34-.255 0-.51-.17-.68-.34l-2.72-3.829-6.375 6.977c-.17.17-.425.256-.68.256-.255 0-.51-.17-.68-.34l-2.806-3.66-6.12 6.467a.771.771 0 01-.595.255z"/></symbol><symbol id="icon-lamp" viewBox="0 0 16 16"><path d="M11.029 2.538a4.76 4.76 0 00-3.975-.988 4.76 4.76 0 00-3.73 3.76 4.802 4.802 0 001.023 3.958c.419.472.659 1.076.678 1.707v1.785a1.785 1.785 0 001.785 1.785h2.38a1.785 1.785 0 001.785-1.785v-1.672c.02-.696.276-1.366.726-1.898a4.76 4.76 0 00-.672-6.664v.012zM9.785 12.76a.595.595 0 01-.595.595H6.81a.595.595 0 01-.595-.595v-.595h3.57v.595zm.994-4.308a4.243 4.243 0 00-.994 2.523h-1.19V9.19a.595.595 0 10-1.19 0v1.785h-1.19A3.868 3.868 0 005.263 8.5a3.57 3.57 0 013.588-5.754 3.57 3.57 0 012.72 3.47 3.504 3.504 0 01-.792 2.236z"/></symbol><symbol id="icon-pause" viewBox="0 0 12 16"><path d="M2.215 2.17H3.99v1.786H2.215V2.169zm0 8.932H3.99v1.786H2.215v-1.786zM1.773 0H0v1.786h1.773V0zM3.989 0H2.215l.005 1.786H3.99V0zM1.773 13.27H0v1.787h1.773v-1.786zM3.989 13.27H2.215l.005 1.787H3.99v-1.786z"/><path d="M1.773 0H0v1.786h1.773V0zM1.773 2.167H0v1.786h1.773V2.167zM1.773 4.378H0v1.787h1.773V4.378zM3.986 4.378H2.213v1.787h1.773V4.378zM1.773 6.59H0v1.787h1.773V6.59zM3.986 6.59H2.213v1.787h1.773V6.59zM1.773 8.87H0v1.786h1.773V8.87zM3.986 8.87H2.213v1.786h1.773V8.87zM1.773 11.1H0v1.786h1.773V11.1zM10.216 2.17h1.773v1.786h-1.774V2.169zm0 8.932h1.773v1.786h-1.774v-1.786zM9.773 0H8v1.786h1.773V0zM11.989 0h-1.774l.005 1.786h1.769V0zM9.773 13.27H8v1.787h1.773v-1.786zM11.989 13.27h-1.774l.005 1.787h1.769v-1.786z"/><path d="M9.773 0H8v1.786h1.773V0zM9.773 2.167H8v1.786h1.773V2.167zM9.773 4.378H8v1.787h1.773V4.378zM11.986 4.378h-1.773v1.787h1.773V4.378zM9.773 6.59H8v1.787h1.773V6.59zM11.986 6.59h-1.773v1.787h1.773V6.59zM9.773 8.87H8v1.786h1.773V8.87zM11.986 8.87h-1.773v1.786h1.773V8.87zM9.773 11.1H8v1.786h1.773V11.1z"/></symbol><symbol id="icon-phone" viewBox="0 0 20 20"><path d="M5.174 18c-.513-.373-1.035-.738-1.52-1.147-.53-.453-1.063-.906-1.46-1.491-.253-.369-.25-.726-.04-1.11.336-.614.79-1.135 1.3-1.613.476-.444.986-.85 1.596-1.102.236-.1.481-.172.742-.148.2.02.365.108.505.252.253.26.462.55.662.85.149.225.285.461.446.678.385.529.814.665 1.448.493.441-.12.826-.349 1.171-.634 1.1-.902 2.103-1.9 3.001-2.998.321-.393.582-.826.67-1.34.088-.509-.04-.934-.477-1.247-.357-.252-.742-.46-1.091-.725a7.75 7.75 0 01-.446-.37c-.292-.256-.353-.572-.264-.933.12-.497.38-.922.686-1.32a7.464 7.464 0 011.837-1.747c.152-.1.317-.18.481-.261.317-.152.602-.092.887.084.401.249.734.578 1.051.926a18.648 18.648 0 011.545 1.961c.028.044.064.08.096.124v.28c-.008.025-.02.049-.02.073-.056.593-.209 1.167-.397 1.728-.558 1.632-1.352 3.14-2.315 4.567-.722 1.074-1.565 2.036-2.6 2.826a20.348 20.348 0 01-3.795 2.277c-.798.37-1.617.686-2.475.895-.31.076-.622.112-.935.168h-.28L5.173 18z"/></symbol><symbol id="icon-piece" viewBox="0 0 16 16"><path d="M12.877 7.755H8.21V3.09c0-.4-.266-.667-.666-.667-3.334 0-6 2.667-6 6s2.666 6 6 6c3.333 0 6-2.667 6-6 0-.4-.267-.667-.667-.667zM8.21 13.022c-2.533.4-4.933-1.4-5.266-3.933-.4-2.534 1.4-4.934 3.933-5.267v4.6c0 .4.267.667.667.667h4.6a4.53 4.53 0 01-3.934 3.933zm2-11.933c-.4 0-.666.266-.666.666v4c0 .4.266.667.666.667h4c.4 0 .667-.267.667-.667 0-2.6-2.067-4.666-4.667-4.666zm.667 4v-2.6a3.27 3.27 0 012.6 2.6h-2.6z"/></symbol><symbol id="icon-play" viewBox="0 0 11 16"><path d="M2.215 2.17H3.99v1.786H2.215V2.169zm0 8.932H3.99v1.786H2.215v-1.786zm2.216-8.933h1.773v1.787H4.436L4.43 2.169zm0 2.235h1.773v1.784H4.436L4.43 4.404zm0 4.463h1.773v1.787H4.436L4.43 8.867zm0 2.235h1.773v1.786H4.436l-.005-1.786zm2.194-6.698H8.4v1.784H6.625V4.404zm0 2.231H8.4v1.787H6.625V6.635zm0 2.232H8.4v1.787H6.625V8.867zm2.24-2.232h1.772v1.787H8.864V6.635zM1.773 0H0v1.786h1.773V0zM3.989 0H2.215l.005 1.786H3.99V0zM1.773 13.27H0v1.787h1.773v-1.786zM3.989 13.27H2.215l.005 1.787H3.99v-1.786z"/><path d="M1.773 0H0v1.786h1.773V0zM1.773 2.167H0v1.786h1.773V2.167zM1.773 4.378H0v1.787h1.773V4.378zM3.986 4.378H2.213v1.787h1.773V4.378zM1.773 6.59H0v1.787h1.773V6.59zM6.205 6.59H4.432v1.787h1.773V6.59zM3.986 6.59H2.213v1.787h1.773V6.59zM1.773 8.87H0v1.786h1.773V8.87zM3.986 8.87H2.213v1.786h1.773V8.87zM1.773 11.1H0v1.786h1.773V11.1z"/></symbol><symbol id="icon-plus-small" viewBox="0 0 10 10"><path d="M3.986 5.96H.742V4.02h3.244V.585h1.94v3.437H9.19V5.96H5.926v3.456h-1.94V5.96z"/></symbol><symbol id="icon-plus" viewBox="0 0 32 32"><path fill-rule="evenodd" clip-rule="evenodd" d="M17.884 32H14.11v-3.817h3.774V32zm0-4.767H14.11v-3.81h3.774v3.81zm-3.774-4.76h3.774v-3.811H14.11v3.81zM32 17.903h-3.774V14.09H32v3.811zm-22.566 0h3.774V14.09H9.434v3.811zm17.846 0h-3.774V14.09h3.774v3.811zm-22.56 0h3.773V14.09H4.72v3.811zm17.852 0h-3.78V14.09h3.78v3.811zM0 17.902h3.78V14.09H0v3.811zm17.884-4.565H14.11V9.52h3.774v3.817zM14.11 8.57h3.774v-3.81H14.11v3.81zm3.774-4.76H14.11V.001h3.774v3.81z"/></symbol><symbol id="icon-smile" viewBox="0 0 40 40"><path d="M20 40C8.936 40 0 31.064 0 20S8.936 0 20 0s20 8.936 20 20-8.936 20-20 20zm0-38.297A18.27 18.27 0 001.703 20 18.27 18.27 0 0020 38.297 18.27 18.27 0 0038.297 20 18.27 18.27 0 0020 1.703z"/><path d="M20 31.915c-2.723 0-5.447-.766-7.574-2.383-.34-.256-.425-.852-.17-1.192.255-.34.851-.425 1.191-.17 3.66 2.808 9.447 2.808 13.191 0 .34-.255.936-.17 1.192.17.255.34.17.936-.17 1.192-2.213 1.617-4.936 2.383-7.66 2.383zM13.021 19.49c-2.298 0-4.085-1.873-4.085-4.086 0-2.212 1.873-4.085 4.085-4.085 2.213 0 4.085 1.873 4.085 4.085 0 2.213-1.787 4.085-4.085 4.085zm0-6.554c-1.277 0-2.383 1.107-2.383 2.383 0 1.277 1.107 2.383 2.383 2.383 1.277 0 2.383-1.106 2.383-2.383a2.379 2.379 0 00-2.383-2.383zM27.064 19.49c-2.298 0-4.085-1.873-4.085-4.086 0-2.212 1.872-4.085 4.085-4.085 2.212 0 4.085 1.873 4.085 4.085 0 2.213-1.788 4.085-4.085 4.085zm0-6.554c-1.277 0-2.384 1.107-2.384 2.383 0 1.277 1.107 2.383 2.384 2.383 1.276 0 2.383-1.106 2.383-2.383a2.379 2.379 0 00-2.383-2.383z"/></symbol><symbol id="icon-tgm" viewBox="0 0 20 20"><path d="M17.354 5.183L14.94 16.215c-.182.779-.657.973-1.332.606l-3.68-2.627-1.774 1.654c-.197.19-.361.35-.74.35l.265-3.63 6.818-5.97c.296-.255-.064-.397-.46-.141l-8.43 5.142-3.629-1.1c-.79-.24-.804-.765.164-1.132L16.337 4.07c.657-.239 1.232.142 1.017 1.114z"/></symbol><symbol id="icon-up-small" viewBox="0 0 16 13"><path d="M16 13v-2.737h-2.667V13H16zM2.667 13v-2.737H0V13h2.667zM16 9.58V6.843h-2.667v2.73L16 9.58zm-3.335 0V6.843h-2.663v2.73l2.663.007zm-6.663 0V6.843H3.335v2.73l2.667.007zm-3.335 0V6.843H0v2.73l2.667.007zm9.998-3.387V3.455h-2.663v2.738h2.663zm-3.332 0V3.455H6.667v2.738h2.666zm-3.331 0V3.455H3.335v2.738h2.667zm3.331-3.456V0H6.667v2.737h2.666z"/></symbol><symbol id="icon-up" viewBox="0 0 55 149"><path d="M0 148.164v-9.054h9.054v9.054H0zm45.248 0v-9.054h9.054v9.054H45.25zM0 136.856v-9.052h9.054v9.052H0zm11.308 0v-9.052h9.053v9.052h-9.053zm22.633 0v-9.052h9.054v9.052H33.94zm11.307 0v-9.052h9.054v9.052H45.25zm-33.94-11.177v-9.034h9.053v9.034h-9.053zm11.307 0v-9.034h9.053v9.034h-9.053zm11.326 0v-9.034h9.054v9.034H33.94zM22.615 114.26v-9.052h9.053v9.034l-9.053.018zM0 95.894v-9.035h9.054v9.035H0zm45.249 0v-9.035h9.053v9.035H45.25zM0 84.585v-9.052h9.054v9.052H0zm11.308 0v-9.052h9.053v9.052h-9.053zm22.634 0v-9.052h9.053v9.052h-9.053zm11.307 0v-9.052h9.053v9.052H45.25zM11.308 73.41v-9.053h9.053v9.053h-9.053zm11.307 0v-9.053h9.054v9.053h-9.054zm11.327 0v-9.053h9.053v9.053h-9.053zM22.615 61.97v-9.034h9.054v9.034h-9.054zM0 43.623v-9.034h9.054v9.034H0zm45.249 0v-9.034h9.053v9.034H45.25zM0 32.315v-9.052h9.054v9.052H0zm11.308 0v-9.052h9.053v9.052h-9.053zm22.634 0v-9.052h9.053v9.052h-9.053zm11.307 0v-9.052h9.053v9.052H45.25zM11.308 21.138v-9.052h9.053v9.052h-9.053zm11.307 0v-9.052h9.054v9.052h-9.054zm11.327 0v-9.052h9.053v9.052h-9.053zM22.615 9.7V.667h9.054V9.7h-9.054z"/></symbol><symbol id="icon-wallet" viewBox="0 0 20 20"><path d="M2.042 14.755c0 1.993.872 3.1 2.952 3.1h10.46c1.817 0 3.009-.725 3.009-2.972V8.806a2.693 2.693 0 00-1.072-2.555v-2.2a2.1 2.1 0 00-2.433-2.117c-2.313.328-8.917 1.191-9.785 1.305a3.368 3.368 0 00-3.137 3.4c0 1.14.006 6.123.006 8.116zM4.7 7.406h10.993a.919.919 0 011.149 1.021v6.783a.928.928 0 01-1.087 1.024H4.77a.97.97 0 01-1.113-1.151V8.427A.931.931 0 014.7 7.406zm.464-2.525A1.668 1.668 0 003.8 5.916a2.226 2.226 0 01.788-.116h11.176V4.045a.446.446 0 00-.6-.5c-.395.055-8.658 1.155-10 1.336zm1.564 5.812a1.137 1.137 0 011.116 1.116 1.166 1.166 0 01-1.125 1.125A1.149 1.149 0 015.588 11.8a1.134 1.134 0 011.14-1.107z" fill-rule="evenodd"/></symbol><symbol id="icon-wapp" viewBox="0 0 20 20"><path d="M16.803 5.584C14.41 2 9.523.934 5.733 3.162 2.045 5.391.848 10.234 3.242 13.82l.2.29-.799 2.907 2.992-.775.3.193c1.296.678 2.692 1.066 4.088 1.066a8.373 8.373 0 004.288-1.163c3.69-2.325 4.787-7.071 2.493-10.753zm-2.094 7.46c-.399.581-.897.968-1.595 1.065-.4 0-.898.194-2.892-.58-1.696-.776-3.092-2.035-4.09-3.488-.598-.679-.897-1.55-.996-2.422 0-.775.299-1.453.797-1.938.2-.194.4-.29.599-.29h.498c.2 0 .4 0 .499.387.2.484.698 1.647.698 1.744.1.097.1.29 0 .387.1.194 0 .388-.1.485-.1.097-.2.29-.299.387-.2.097-.299.29-.2.485.4.58.898 1.162 1.397 1.646.598.485 1.197.872 1.895 1.163.2.097.399.097.498-.097.1-.194.599-.678.798-.872.2-.194.3-.194.499-.097l1.595.775c.2.097.4.194.499.291.1.29.1.678-.1.969z"/></symbol> <view id="icon-bots-view-orange" viewBox="0 0 49 40"/><view id="icon-bots-view-dark" viewBox="0 50 49 40"/><view id="icon-bots-view-white" viewBox="0 100 49 40"/><view id="icon-close-view-orange" viewBox="0 150 37 37"/><view id="icon-close-view-dark" viewBox="0 197 37 37"/><view id="icon-close-view-white" viewBox="0 244 37 37"/><view id="icon-down-view-orange" viewBox="0 291 40 33"/><view id="icon-down-view-dark" viewBox="0 334 40 33"/><view id="icon-down-view-white" viewBox="0 377 40 33"/><view id="icon-glob-view-orange" viewBox="0 420 40 40"/><view id="icon-glob-view-dark" viewBox="0 470 40 40"/><view id="icon-glob-view-white" viewBox="0 520 40 40"/><view id="icon-graph-view-orange" viewBox="0 570 20 20"/><view id="icon-graph-view-dark" viewBox="0 600 20 20"/><view id="icon-graph-view-white" viewBox="0 630 20 20"/><view id="icon-grow-view-orange" viewBox="0 660 40 40"/><view id="icon-grow-view-dark" viewBox="0 710 40 40"/><view id="icon-grow-view-white" viewBox="0 760 40 40"/><view id="icon-lamp-view-orange" viewBox="0 810 16 16"/><view id="icon-lamp-view-dark" viewBox="0 836 16 16"/><view id="icon-lamp-view-white" viewBox="0 862 16 16"/><view id="icon-pause-view-orange" viewBox="0 888 12 16"/><view id="icon-pause-view-dark" viewBox="0 914 12 16"/><view id="icon-pause-view-white" viewBox="0 940 12 16"/><view id="icon-phone-view-orange" viewBox="0 966 20 20"/><view id="icon-phone-view-dark" viewBox="0 996 20 20"/><view id="icon-phone-view-white" viewBox="0 1026 20 20"/><view id="icon-piece-view-orange" viewBox="0 1056 16 16"/><view id="icon-piece-view-dark" viewBox="0 1082 16 16"/><view id="icon-piece-view-white" viewBox="0 1108 16 16"/><view id="icon-play-view-orange" viewBox="0 1134 11 16"/><view id="icon-play-view-dark" viewBox="0 1160 11 16"/><view id="icon-play-view-white" viewBox="0 1186 11 16"/><view id="icon-plus-small-view-orange" viewBox="0 1212 10 10"/><view id="icon-plus-small-view-dark" viewBox="0 1232 10 10"/><view id="icon-plus-small-view-white" viewBox="0 1252 10 10"/><view id="icon-plus-view-orange" viewBox="0 1272 32 32"/><view id="icon-plus-view-dark" viewBox="0 1314 32 32"/><view id="icon-plus-view-white" viewBox="0 1356 32 32"/><view id="icon-smile-view-orange" viewBox="0 1398 40 40"/><view id="icon-smile-view-dark" viewBox="0 1448 40 40"/><view id="icon-smile-view-white" viewBox="0 1498 40 40"/><view id="icon-tgm-view-orange" viewBox="0 1548 20 20"/><view id="icon-tgm-view-dark" viewBox="0 1578 20 20"/><view id="icon-tgm-view-white" viewBox="0 1608 20 20"/><view id="icon-up-small-view-orange" viewBox="0 1638 16 13"/><view id="icon-up-small-view-dark" viewBox="0 1661 16 13"/><view id="icon-up-small-view-white" viewBox="0 1684 16 13"/><view id="icon-up-view-orange" viewBox="0 1707 55 149"/><view id="icon-up-view-dark" viewBox="0 1866 55 149"/><view id="icon-up-view-white" viewBox="0 2025 55 149"/><view id="icon-wallet-view-orange" viewBox="0 2184 20 20"/><view id="icon-wallet-view-dark" viewBox="0 2214 20 20"/><view id="icon-wallet-view-white" viewBox="0 2244 20 20"/><view id="icon-wapp-view-orange" viewBox="0 2274 20 20"/><view id="icon-wapp-view-dark" viewBox="0 2304 20 20"/><view id="icon-wapp-view-white" viewBox="0 2334 20 20"/> <use xlink:href="#icon-bots" x="0" y="0" width="49" height="40" style="fill:#fe9e34"/><use xlink:href="#icon-bots" x="0" y="50" width="49" height="40" style="fill:#555555"/><use xlink:href="#icon-bots" x="0" y="100" width="49" height="40" style="fill:#ffffff"/><use xlink:href="#icon-close" x="0" y="150" width="37" height="37" style="fill:#fe9e34"/><use xlink:href="#icon-close" x="0" y="197" width="37" height="37" style="fill:#555555"/><use xlink:href="#icon-close" x="0" y="244" width="37" height="37" style="fill:#ffffff"/><use xlink:href="#icon-down" x="0" y="291" width="40" height="33" style="fill:#fe9e34"/><use xlink:href="#icon-down" x="0" y="334" width="40" height="33" style="fill:#555555"/><use xlink:href="#icon-down" x="0" y="377" width="40" height="33" style="fill:#ffffff"/><use xlink:href="#icon-glob" x="0" y="420" width="40" height="40" style="fill:#fe9e34"/><use xlink:href="#icon-glob" x="0" y="470" width="40" height="40" style="fill:#555555"/><use xlink:href="#icon-glob" x="0" y="520" width="40" height="40" style="fill:#ffffff"/><use xlink:href="#icon-graph" x="0" y="570" width="20" height="20" style="fill:#fe9e34"/><use xlink:href="#icon-graph" x="0" y="600" width="20" height="20" style="fill:#555555"/><use xlink:href="#icon-graph" x="0" y="630" width="20" height="20" style="fill:#ffffff"/><use xlink:href="#icon-grow" x="0" y="660" width="40" height="40" style="fill:#fe9e34"/><use xlink:href="#icon-grow" x="0" y="710" width="40" height="40" style="fill:#555555"/><use xlink:href="#icon-grow" x="0" y="760" width="40" height="40" style="fill:#ffffff"/><use xlink:href="#icon-lamp" x="0" y="810" width="16" height="16" style="fill:#fe9e34"/><use xlink:href="#icon-lamp" x="0" y="836" width="16" height="16" style="fill:#555555"/><use xlink:href="#icon-lamp" x="0" y="862" width="16" height="16" style="fill:#ffffff"/><use xlink:href="#icon-pause" x="0" y="888" width="12" height="16" style="fill:#fe9e34"/><use xlink:href="#icon-pause" x="0" y="914" width="12" height="16" style="fill:#555555"/><use xlink:href="#icon-pause" x="0" y="940" width="12" height="16" style="fill:#ffffff"/><use xlink:href="#icon-phone" x="0" y="966" width="20" height="20" style="fill:#fe9e34"/><use xlink:href="#icon-phone" x="0" y="996" width="20" height="20" style="fill:#555555"/><use xlink:href="#icon-phone" x="0" y="1026" width="20" height="20" style="fill:#ffffff"/><use xlink:href="#icon-piece" x="0" y="1056" width="16" height="16" style="fill:#fe9e34"/><use xlink:href="#icon-piece" x="0" y="1082" width="16" height="16" style="fill:#555555"/><use xlink:href="#icon-piece" x="0" y="1108" width="16" height="16" style="fill:#ffffff"/><use xlink:href="#icon-play" x="0" y="1134" width="11" height="16" style="fill:#fe9e34"/><use xlink:href="#icon-play" x="0" y="1160" width="11" height="16" style="fill:#555555"/><use xlink:href="#icon-play" x="0" y="1186" width="11" height="16" style="fill:#ffffff"/><use xlink:href="#icon-plus-small" x="0" y="1212" width="10" height="10" style="fill:#fe9e34"/><use xlink:href="#icon-plus-small" x="0" y="1232" width="10" height="10" style="fill:#555555"/><use xlink:href="#icon-plus-small" x="0" y="1252" width="10" height="10" style="fill:#ffffff"/><use xlink:href="#icon-plus" x="0" y="1272" width="32" height="32" style="fill:#fe9e34"/><use xlink:href="#icon-plus" x="0" y="1314" width="32" height="32" style="fill:#555555"/><use xlink:href="#icon-plus" x="0" y="1356" width="32" height="32" style="fill:#ffffff"/><use xlink:href="#icon-smile" x="0" y="1398" width="40" height="40" style="fill:#fe9e34"/><use xlink:href="#icon-smile" x="0" y="1448" width="40" height="40" style="fill:#555555"/><use xlink:href="#icon-smile" x="0" y="1498" width="40" height="40" style="fill:#ffffff"/><use xlink:href="#icon-tgm" x="0" y="1548" width="20" height="20" style="fill:#fe9e34"/><use xlink:href="#icon-tgm" x="0" y="1578" width="20" height="20" style="fill:#555555"/><use xlink:href="#icon-tgm" x="0" y="1608" width="20" height="20" style="fill:#ffffff"/><use xlink:href="#icon-up-small" x="0" y="1638" width="16" height="13" style="fill:#fe9e34"/><use xlink:href="#icon-up-small" x="0" y="1661" width="16" height="13" style="fill:#555555"/><use xlink:href="#icon-up-small" x="0" y="1684" width="16" height="13" style="fill:#ffffff"/><use xlink:href="#icon-up" x="0" y="1707" width="55" height="149" style="fill:#fe9e34"/><use xlink:href="#icon-up" x="0" y="1866" width="55" height="149" style="fill:#555555"/><use xlink:href="#icon-up" x="0" y="2025" width="55" height="149" style="fill:#ffffff"/><use xlink:href="#icon-wallet" x="0" y="2184" width="20" height="20" style="fill:#fe9e34"/><use xlink:href="#icon-wallet" x="0" y="2214" width="20" height="20" style="fill:#555555"/><use xlink:href="#icon-wallet" x="0" y="2244" width="20" height="20" style="fill:#ffffff"/><use xlink:href="#icon-wapp" x="0" y="2274" width="20" height="20" style="fill:#fe9e34"/><use xlink:href="#icon-wapp" x="0" y="2304" width="20" height="20" style="fill:#555555"/><use xlink:href="#icon-wapp" x="0" y="2334" width="20" height="20" style="fill:#ffffff"/></svg>