<svg xmlns="http://www.w3.org/2000/svg" xmlns:xlink="http://www.w3.org/1999/xlink"><symbol id="icon-bots" viewBox="0 0 49 40"><g clip-path="url(#clip0_288_4574)"><path d="M24.336 15.299c-4.176 0-7.518-3.386-7.518-7.62 0-4.232 3.341-7.618 7.518-7.618s7.518 3.386 7.518 7.619c0 4.232-3.341 7.619-7.518 7.619zm0-13.228c-3.028 0-5.43 2.434-5.43 5.503 0 3.068 2.402 5.502 5.43 5.502 3.028 0 5.43-2.433 5.43-5.502 0-3.07-2.402-5.503-5.43-5.503zM9.51 18.261c-2.925 0-5.326-2.434-5.326-5.397S6.585 7.468 9.51 7.468c2.924 0 5.325 2.433 5.325 5.396s-2.401 5.397-5.325 5.397zm0-8.677c-1.776 0-3.238 1.482-3.238 3.28 0 1.8 1.462 3.281 3.237 3.281 1.775 0 3.237-1.481 3.237-3.28 0-1.8-1.462-3.28-3.237-3.28zM39.58 18.261c-2.923 0-5.325-2.434-5.325-5.397s2.402-5.396 5.325-5.396c2.924 0 5.326 2.433 5.326 5.396s-2.298 5.397-5.325 5.397zm0-8.677c-1.774 0-3.236 1.482-3.236 3.28 0 1.8 1.461 3.281 3.236 3.281 1.775 0 3.237-1.481 3.237-3.28 0-1.8-1.357-3.28-3.236-3.28zM37.179 39.955H11.597c-.627 0-1.044-.424-1.044-1.059v-13.12c0-4.974 3.968-8.995 8.875-8.995h9.92c4.907 0 8.875 4.02 8.875 8.994v13.016c0 .635-.523 1.164-1.044 1.164zm-24.538-2.116H36.03V25.775c0-3.81-3.028-6.878-6.787-6.878h-9.919c-3.759 0-6.787 3.069-6.787 6.878v12.064h.104z"/><path d="M48.038 35.51H37.179c-.626 0-1.044-.423-1.044-1.058V25.88c0-1.587-.522-3.174-1.566-4.444-.21-.318-.314-.635-.21-1.058a1.27 1.27 0 01.732-.741c.418-.106.835-.106 1.253-.106h6.473c3.446 0 6.16 2.857 6.16 6.243v8.572c.105.635-.313 1.164-.939 1.164zm-9.815-2.116h8.77V25.88c0-2.329-1.88-4.127-4.072-4.127h-5.743c.627 1.27 1.045 2.75 1.045 4.127v7.513zM11.597 35.51H1.052c-.627 0-1.045-.423-1.045-1.058V25.88c0-3.493 2.82-6.244 6.16-6.244h6.474c.313 0 .627 0 .94.106.418.106.73.318.835.635.105.317.105.74-.209 1.058-1.044 1.27-1.67 2.858-1.67 4.445v8.571c.104.53-.313 1.058-.94 1.058zm-9.501-2.116h8.458V25.88c0-1.482.313-2.857 1.044-4.127h-5.43c-2.297 0-4.072 1.904-4.072 4.127v7.513z"/></g><defs><clipPath id="clip0_288_4574"><path d="M0 0h49v40H0z"/></clipPath></defs></symbol><symbol id="icon-down" viewBox="0 0 40 33"><path d="M40 0v6.948h-6.667V0H40zM6.667 0v6.948H0V0h6.667zM40 8.68v6.95h-6.667V8.698L40 8.681zm-8.338 0v6.95h-6.658V8.698l6.658-.018zm-16.658 0v6.95H8.338V8.698l6.666-.018zm-8.337 0v6.95H0V8.698l6.667-.018zm24.995 8.6v6.948h-6.658V17.28h6.658zm-8.329 0v6.948h-6.666V17.28h6.666zm-8.329 0v6.948H8.338V17.28h6.666zm8.33 8.772V33h-6.667v-6.948h6.666z"/><defs><linearGradient id="paint0_linear_649_146" x1="11.4" y1="-26.895" x2="66.057" y2="15.527" gradientUnits="userSpaceOnUse"><stop stop-color="#EF711D"/><stop offset="1" stop-color="#FE9E34"/></linearGradient></defs></symbol><symbol id="icon-glob" viewBox="0 0 40 40"><g clip-path="url(#clip0_288_4598)"><path d="M33.328 34.554a.773.773 0 01-.596-.255 18.297 18.297 0 00-12.75-5.186c-4.76 0-9.266 1.87-12.75 5.186-.34.34-.85.34-1.19 0-3.91-3.74-6.036-8.84-6.036-14.28 0-5.441 2.125-10.541 6.035-14.281.34-.34.85-.34 1.19 0a18.297 18.297 0 0012.75 5.185c4.76 0 9.266-1.87 12.751-5.185.34-.34.85-.34 1.19 0 3.91 3.825 6.035 8.84 6.035 14.28 0 5.44-2.125 10.54-6.035 14.28a.917.917 0 01-.594.256zM6.636 7.523c-3.23 3.4-4.93 7.82-4.93 12.495 0 4.676 1.785 9.095 4.93 12.496 3.655-3.315 8.33-5.1 13.346-5.1 4.93 0 9.605 1.785 13.346 5.1 3.23-3.4 4.93-7.82 4.93-12.496 0-4.675-1.785-9.095-4.93-12.495-3.656 3.315-8.33 5.1-13.346 5.1-4.93 0-9.605-1.87-13.346-5.1z"/><path d="M19.982 12.623c-5.185 0-10.2-2.04-13.94-5.695a.77.77 0 01-.255-.595c0-.255.085-.425.255-.595A19.969 19.969 0 0119.982.042c5.185 0 10.2 2.04 13.94 5.696.17.17.255.34.255.595a.772.772 0 01-.255.595 19.97 19.97 0 01-13.94 5.695zm-12.07-6.29c3.314 2.975 7.564 4.59 12.07 4.59 4.505 0 8.755-1.615 12.07-4.59-3.315-2.975-7.565-4.59-12.07-4.59s-8.756 1.615-12.07 4.59zM19.982 39.994c-5.185 0-10.2-2.04-13.94-5.695a.772.772 0 01-.255-.595c0-.255.085-.425.255-.595 3.74-3.656 8.67-5.696 13.94-5.696 5.185 0 10.2 2.04 13.94 5.696.17.17.255.34.255.595a.772.772 0 01-.255.595 19.969 19.969 0 01-13.94 5.695zm-12.07-6.29c3.314 2.975 7.564 4.59 12.07 4.59 4.505 0 8.755-1.615 12.07-4.59-3.315-2.975-7.564-4.59-12.07-4.59-4.505 0-8.756 1.615-12.07 4.59z"/><path d="M19.982 39.994c-5.44 0-9.69-8.755-9.69-19.976 0-11.22 4.25-19.976 9.69-19.976 5.44 0 9.69 8.756 9.69 19.976 0 11.22-4.25 19.976-9.69 19.976zm0-38.251c-4.335 0-7.99 8.33-7.99 18.275 0 9.946 3.654 18.276 7.99 18.276 4.335 0 7.99-8.33 7.99-18.276 0-9.945-3.655-18.275-7.99-18.275z"/><path d="M19.982 39.994c-.51 0-.85-.34-.85-.85V.893c0-.51.34-.85.85-.85s.85.34.85.85v38.251c0 .51-.34.85-.85.85z"/><path d="M39.107 20.869H.856c-.51 0-.85-.34-.85-.85s.34-.85.85-.85h38.251c.51 0 .85.34.85.85s-.34.85-.85.85z"/></g><defs><clipPath id="clip0_288_4598"><path d="M0 0h40v40H0z"/></clipPath></defs></symbol><symbol id="icon-grow" viewBox="0 0 40 40"><path d="M39.108 30.105H.856c-.51 0-.85-.34-.85-.85V5.174c0-.51.34-.85.85-.85h38.252c.51 0 .85.34.85.85v24.08c0 .51-.34.85-.85.85zM1.707 28.404h36.551V6.026H1.706v22.378z"/><path d="M19.982 6.026c-.51 0-.85-.34-.85-.85V1.856c0-.51.34-.85.85-.85s.85.34.85.85v3.318c0 .511-.34.851-.85.851zM19.982 39.976c-.51 0-.85-.34-.85-.85v-9.87c0-.511.34-.852.85-.852s.85.34.85.851v9.785c0 .596-.34.936-.85.936zM6.806 39.976c-.17 0-.34 0-.424-.085-.425-.255-.51-.766-.255-1.191l6.035-9.87c.255-.425.765-.51 1.19-.255.425.255.51.765.255 1.19L7.572 39.55c-.17.256-.426.426-.766.426zM33.157 39.976c-.255 0-.595-.17-.765-.425l-6.035-9.87c-.255-.426-.085-.936.255-1.191.425-.256.935-.086 1.19.255l6.035 9.87c.255.425.085.935-.255 1.19-.17.17-.255.17-.425.17zM6.806 24.66a.919.919 0 01-.595-.255.823.823 0 010-1.191l6.8-7.232c.17-.17.425-.256.68-.256.255 0 .51.17.596.34l2.72 3.66 6.375-6.893c.17-.17.425-.255.68-.255.255 0 .51.17.68.34l2.72 3.744 5.185-6.551c.255-.34.85-.426 1.19-.17.34.255.425.85.17 1.19l-5.865 7.403c-.17.17-.425.34-.68.34-.255 0-.51-.17-.68-.34l-2.72-3.829-6.375 6.977c-.17.17-.425.256-.68.256-.255 0-.51-.17-.68-.34l-2.806-3.66-6.12 6.467a.771.771 0 01-.595.255z"/></symbol><symbol id="icon-phone" viewBox="0 0 20 20"><path d="M5.174 18c-.513-.373-1.035-.738-1.52-1.147-.53-.453-1.063-.906-1.46-1.491-.253-.369-.25-.726-.04-1.11.336-.614.79-1.135 1.3-1.613.476-.444.986-.85 1.596-1.102.236-.1.481-.172.742-.148.2.02.365.108.505.252.253.26.462.55.662.85.149.225.285.461.446.678.385.529.814.665 1.448.493.441-.12.826-.349 1.171-.634 1.1-.902 2.103-1.9 3.001-2.998.321-.393.582-.826.67-1.34.088-.509-.04-.934-.477-1.247-.357-.252-.742-.46-1.091-.725a7.75 7.75 0 01-.446-.37c-.292-.256-.353-.572-.264-.933.12-.497.38-.922.686-1.32a7.464 7.464 0 011.837-1.747c.152-.1.317-.18.481-.261.317-.152.602-.092.887.084.401.249.734.578 1.051.926a18.648 18.648 0 011.545 1.961c.028.044.064.08.096.124v.28c-.008.025-.02.049-.02.073-.056.593-.209 1.167-.397 1.728-.558 1.632-1.352 3.14-2.315 4.567-.722 1.074-1.565 2.036-2.6 2.826a20.348 20.348 0 01-3.795 2.277c-.798.37-1.617.686-2.475.895-.31.076-.622.112-.935.168h-.28L5.173 18z"/></symbol><symbol id="icon-plus-small" viewBox="0 0 10 10"><path d="M3.986 5.96H.742V4.02h3.244V.585h1.94v3.437H9.19V5.96H5.926v3.456h-1.94V5.96z"/></symbol><symbol id="icon-plus" viewBox="0 0 32 32"><path fill-rule="evenodd" clip-rule="evenodd" d="M17.884 32H14.11v-3.817h3.774V32zm0-4.767H14.11v-3.81h3.774v3.81zm-3.774-4.76h3.774v-3.811H14.11v3.81zM32 17.903h-3.774V14.09H32v3.811zm-22.566 0h3.774V14.09H9.434v3.811zm17.846 0h-3.774V14.09h3.774v3.811zm-22.56 0h3.773V14.09H4.72v3.811zm17.852 0h-3.78V14.09h3.78v3.811zM0 17.902h3.78V14.09H0v3.811zm17.884-4.565H14.11V9.52h3.774v3.817zM14.11 8.57h3.774v-3.81H14.11v3.81zm3.774-4.76H14.11V.001h3.774v3.81z"/></symbol><symbol id="icon-smile" viewBox="0 0 40 40"><path d="M20 40C8.936 40 0 31.064 0 20S8.936 0 20 0s20 8.936 20 20-8.936 20-20 20zm0-38.297A18.27 18.27 0 001.703 20 18.27 18.27 0 0020 38.297 18.27 18.27 0 0038.297 20 18.27 18.27 0 0020 1.703z"/><path d="M20 31.915c-2.723 0-5.447-.766-7.574-2.383-.34-.256-.425-.852-.17-1.192.255-.34.851-.425 1.191-.17 3.66 2.808 9.447 2.808 13.191 0 .34-.255.936-.17 1.192.17.255.34.17.936-.17 1.192-2.213 1.617-4.936 2.383-7.66 2.383zM13.021 19.49c-2.298 0-4.085-1.873-4.085-4.086 0-2.212 1.873-4.085 4.085-4.085 2.213 0 4.085 1.873 4.085 4.085 0 2.213-1.787 4.085-4.085 4.085zm0-6.554c-1.277 0-2.383 1.107-2.383 2.383 0 1.277 1.107 2.383 2.383 2.383 1.277 0 2.383-1.106 2.383-2.383a2.379 2.379 0 00-2.383-2.383zM27.064 19.49c-2.298 0-4.085-1.873-4.085-4.086 0-2.212 1.872-4.085 4.085-4.085 2.212 0 4.085 1.873 4.085 4.085 0 2.213-1.788 4.085-4.085 4.085zm0-6.554c-1.277 0-2.384 1.107-2.384 2.383 0 1.277 1.107 2.383 2.384 2.383 1.276 0 2.383-1.106 2.383-2.383a2.379 2.379 0 00-2.383-2.383z"/></symbol><symbol id="icon-tgm" viewBox="0 0 20 20"><path d="M17.354 5.183L14.94 16.215c-.182.779-.657.973-1.332.606l-3.68-2.627-1.774 1.654c-.197.19-.361.35-.74.35l.265-3.63 6.818-5.97c.296-.255-.064-.397-.46-.141l-8.43 5.142-3.629-1.1c-.79-.24-.804-.765.164-1.132L16.337 4.07c.657-.239 1.232.142 1.017 1.114z"/></symbol><symbol id="icon-up" viewBox="0 0 55 149"><path d="M0 148.164v-9.054h9.054v9.054H0zm45.248 0v-9.054h9.054v9.054H45.25zM0 136.856v-9.052h9.054v9.052H0zm11.308 0v-9.052h9.053v9.052h-9.053zm22.633 0v-9.052h9.054v9.052H33.94zm11.307 0v-9.052h9.054v9.052H45.25zm-33.94-11.177v-9.034h9.053v9.034h-9.053zm11.307 0v-9.034h9.053v9.034h-9.053zm11.326 0v-9.034h9.054v9.034H33.94zM22.615 114.26v-9.052h9.053v9.034l-9.053.018zM0 95.894v-9.035h9.054v9.035H0zm45.249 0v-9.035h9.053v9.035H45.25zM0 84.585v-9.052h9.054v9.052H0zm11.308 0v-9.052h9.053v9.052h-9.053zm22.634 0v-9.052h9.053v9.052h-9.053zm11.307 0v-9.052h9.053v9.052H45.25zM11.308 73.41v-9.053h9.053v9.053h-9.053zm11.307 0v-9.053h9.054v9.053h-9.054zm11.327 0v-9.053h9.053v9.053h-9.053zM22.615 61.97v-9.034h9.054v9.034h-9.054zM0 43.623v-9.034h9.054v9.034H0zm45.249 0v-9.034h9.053v9.034H45.25zM0 32.315v-9.052h9.054v9.052H0zm11.308 0v-9.052h9.053v9.052h-9.053zm22.634 0v-9.052h9.053v9.052h-9.053zm11.307 0v-9.052h9.053v9.052H45.25zM11.308 21.138v-9.052h9.053v9.052h-9.053zm11.307 0v-9.052h9.054v9.052h-9.054zm11.327 0v-9.052h9.053v9.052h-9.053zM22.615 9.7V.667h9.054V9.7h-9.054z"/></symbol><symbol id="icon-wapp" viewBox="0 0 20 20"><path d="M16.803 5.584C14.41 2 9.523.934 5.733 3.162 2.045 5.391.848 10.234 3.242 13.82l.2.29-.799 2.907 2.992-.775.3.193c1.296.678 2.692 1.066 4.088 1.066a8.373 8.373 0 004.288-1.163c3.69-2.325 4.787-7.071 2.493-10.753zm-2.094 7.46c-.399.581-.897.968-1.595 1.065-.4 0-.898.194-2.892-.58-1.696-.776-3.092-2.035-4.09-3.488-.598-.679-.897-1.55-.996-2.422 0-.775.299-1.453.797-1.938.2-.194.4-.29.599-.29h.498c.2 0 .4 0 .499.387.2.484.698 1.647.698 1.744.1.097.1.29 0 .387.1.194 0 .388-.1.485-.1.097-.2.29-.299.387-.2.097-.299.29-.2.485.4.58.898 1.162 1.397 1.646.598.485 1.197.872 1.895 1.163.2.097.399.097.498-.097.1-.194.599-.678.798-.872.2-.194.3-.194.499-.097l1.595.775c.2.097.4.194.499.291.1.29.1.678-.1.969z"/></symbol> <view id="icon-bots-view-orange" viewBox="0 0 49 40"/><view id="icon-bots-view-dark" viewBox="0 50 49 40"/><view id="icon-bots-view-white" viewBox="0 100 49 40"/><view id="icon-down-view-orange" viewBox="0 150 40 33"/><view id="icon-down-view-dark" viewBox="0 193 40 33"/><view id="icon-down-view-white" viewBox="0 236 40 33"/><view id="icon-glob-view-orange" viewBox="0 279 40 40"/><view id="icon-glob-view-dark" viewBox="0 329 40 40"/><view id="icon-glob-view-white" viewBox="0 379 40 40"/><view id="icon-grow-view-orange" viewBox="0 429 40 40"/><view id="icon-grow-view-dark" viewBox="0 479 40 40"/><view id="icon-grow-view-white" viewBox="0 529 40 40"/><view id="icon-phone-view-orange" viewBox="0 579 20 20"/><view id="icon-phone-view-dark" viewBox="0 609 20 20"/><view id="icon-phone-view-white" viewBox="0 639 20 20"/><view id="icon-plus-small-view-orange" viewBox="0 669 10 10"/><view id="icon-plus-small-view-dark" viewBox="0 689 10 10"/><view id="icon-plus-small-view-white" viewBox="0 709 10 10"/><view id="icon-plus-view-orange" viewBox="0 729 32 32"/><view id="icon-plus-view-dark" viewBox="0 771 32 32"/><view id="icon-plus-view-white" viewBox="0 813 32 32"/><view id="icon-smile-view-orange" viewBox="0 855 40 40"/><view id="icon-smile-view-dark" viewBox="0 905 40 40"/><view id="icon-smile-view-white" viewBox="0 955 40 40"/><view id="icon-tgm-view-orange" viewBox="0 1005 20 20"/><view id="icon-tgm-view-dark" viewBox="0 1035 20 20"/><view id="icon-tgm-view-white" viewBox="0 1065 20 20"/><view id="icon-up-view-orange" viewBox="0 1095 55 149"/><view id="icon-up-view-dark" viewBox="0 1254 55 149"/><view id="icon-up-view-white" viewBox="0 1413 55 149"/><view id="icon-wapp-view-orange" viewBox="0 1572 20 20"/><view id="icon-wapp-view-dark" viewBox="0 1602 20 20"/><view id="icon-wapp-view-white" viewBox="0 1632 20 20"/> <use xlink:href="#icon-bots" x="0" y="0" width="49" height="40" style="fill:#fe9e34"/><use xlink:href="#icon-bots" x="0" y="50" width="49" height="40" style="fill:#555555"/><use xlink:href="#icon-bots" x="0" y="100" width="49" height="40" style="fill:#ffffff"/><use xlink:href="#icon-down" x="0" y="150" width="40" height="33" style="fill:#fe9e34"/><use xlink:href="#icon-down" x="0" y="193" width="40" height="33" style="fill:#555555"/><use xlink:href="#icon-down" x="0" y="236" width="40" height="33" style="fill:#ffffff"/><use xlink:href="#icon-glob" x="0" y="279" width="40" height="40" style="fill:#fe9e34"/><use xlink:href="#icon-glob" x="0" y="329" width="40" height="40" style="fill:#555555"/><use xlink:href="#icon-glob" x="0" y="379" width="40" height="40" style="fill:#ffffff"/><use xlink:href="#icon-grow" x="0" y="429" width="40" height="40" style="fill:#fe9e34"/><use xlink:href="#icon-grow" x="0" y="479" width="40" height="40" style="fill:#555555"/><use xlink:href="#icon-grow" x="0" y="529" width="40" height="40" style="fill:#ffffff"/><use xlink:href="#icon-phone" x="0" y="579" width="20" height="20" style="fill:#fe9e34"/><use xlink:href="#icon-phone" x="0" y="609" width="20" height="20" style="fill:#555555"/><use xlink:href="#icon-phone" x="0" y="639" width="20" height="20" style="fill:#ffffff"/><use xlink:href="#icon-plus-small" x="0" y="669" width="10" height="10" style="fill:#fe9e34"/><use xlink:href="#icon-plus-small" x="0" y="689" width="10" height="10" style="fill:#555555"/><use xlink:href="#icon-plus-small" x="0" y="709" width="10" height="10" style="fill:#ffffff"/><use xlink:href="#icon-plus" x="0" y="729" width="32" height="32" style="fill:#fe9e34"/><use xlink:href="#icon-plus" x="0" y="771" width="32" height="32" style="fill:#555555"/><use xlink:href="#icon-plus" x="0" y="813" width="32" height="32" style="fill:#ffffff"/><use xlink:href="#icon-smile" x="0" y="855" width="40" height="40" style="fill:#fe9e34"/><use xlink:href="#icon-smile" x="0" y="905" width="40" height="40" style="fill:#555555"/><use xlink:href="#icon-smile" x="0" y="955" width="40" height="40" style="fill:#ffffff"/><use xlink:href="#icon-tgm" x="0" y="1005" width="20" height="20" style="fill:#fe9e34"/><use xlink:href="#icon-tgm" x="0" y="1035" width="20" height="20" style="fill:#555555"/><use xlink:href="#icon-tgm" x="0" y="1065" width="20" height="20" style="fill:#ffffff"/><use xlink:href="#icon-up" x="0" y="1095" width="55" height="149" style="fill:#fe9e34"/><use xlink:href="#icon-up" x="0" y="1254" width="55" height="149" style="fill:#555555"/><use xlink:href="#icon-up" x="0" y="1413" width="55" height="149" style="fill:#ffffff"/><use xlink:href="#icon-wapp" x="0" y="1572" width="20" height="20" style="fill:#fe9e34"/><use xlink:href="#icon-wapp" x="0" y="1602" width="20" height="20" style="fill:#555555"/><use xlink:href="#icon-wapp" x="0" y="1632" width="20" height="20" style="fill:#ffffff"/></svg>